<?xml version="1.0" encoding="UTF-8" standalone="no"?>
<svg
   xmlns:svg="http://www.w3.org/2000/svg"
   xmlns="http://www.w3.org/2000/svg"
   xmlns:sodipodi="http://sodipodi.sourceforge.net/DTD/sodipodi-0.dtd"
   xmlns:inkscape="http://www.inkscape.org/namespaces/inkscape"
   width="132.60001"
   height="132.60001"
   viewBox="0 0 132.6 132.60001"
   fill="none"
   version="1.1"
   id="svg34"
   sodipodi:docname="favicon.svg"
   inkscape:version="1.1-dev (2e60fb975d, 2020-06-03)">
  <defs
     id="defs38" />
  <sodipodi:namedview
     pagecolor="#ffffff"
     bordercolor="#666666"
     borderopacity="1"
     objecttolerance="10"
     gridtolerance="10"
     guidetolerance="10"
     inkscape:pageopacity="0"
     inkscape:pageshadow="2"
     inkscape:window-width="1366"
     inkscape:window-height="719"
     id="namedview36"
     showgrid="false"
     inkscape:zoom="0.7078971"
     inkscape:cx="6.8814234"
     inkscape:cy="133.646"
     inkscape:window-x="0"
     inkscape:window-y="0"
     inkscape:window-maximized="1"
     inkscape:current-layer="g846" />
  <g
     id="g871"
     transform="translate(-276.18,-169.671)">
    <g
       id="g846">
      <path
         d="m 342.48,302.271 c 36.617,0 66.3,-29.684 66.3,-66.3 0,-36.617 -29.683,-66.3 -66.3,-66.3 -36.616,0 -66.3,29.683 -66.3,66.3 0,36.616 29.684,66.3 66.3,66.3 z"
         fill="#41c1c3"
         id="path8" />
      <path
         d="m 371.733,176.473 c 14.339,7.05 25.649,19.041 31.85,33.766 L 342.48,235.97 Z"
         fill="#ffffff"
         id="path10" />
      <path
         d="m 342.48,281.792 c 25.307,0 45.822,-20.515 45.822,-45.822 0,-25.307 -20.515,-45.822 -45.822,-45.822 -25.307,0 -45.822,20.515 -45.822,45.822 0,25.307 20.515,45.822 45.822,45.822 z"
         fill="#227bc0"
         id="path12" />
      <path
         d="m 342.48,275.721 c 21.953,0 39.75,-17.797 39.75,-39.75 0,-21.954 -17.797,-39.75 -39.75,-39.75 -21.953,0 -39.75,17.796 -39.75,39.75 0,21.953 17.797,39.75 39.75,39.75 z"
         fill="#5d4ea0"
         id="path14" />
      <path
         d="m 362.506,201.634 c 6.005,3.502 10.986,8.518 14.447,14.546 l -34.473,19.791 z"
         fill="#ffffff"
         id="path16" />
    </g>
  </g>
</svg>
