<?xml version="1.0" encoding="UTF-8" standalone="no"?>
<svg
   xmlns:svg="http://www.w3.org/2000/svg"
   xmlns="http://www.w3.org/2000/svg"
   xmlns:sodipodi="http://sodipodi.sourceforge.net/DTD/sodipodi-0.dtd"
   xmlns:inkscape="http://www.inkscape.org/namespaces/inkscape"
   inkscape:version="1.1-dev (2e60fb975d, 2020-06-03)"
   sodipodi:docname="logo.svg"
   id="svg34"
   version="1.1"
   fill="none"
   viewBox="0 0 596 721"
   height="721"
   width="596">
  <defs
     id="defs38" />
  <sodipodi:namedview
     inkscape:current-layer="svg34"
     inkscape:window-maximized="1"
     inkscape:window-y="0"
     inkscape:window-x="0"
     inkscape:cy="708.22757"
     inkscape:cx="223.74247"
     inkscape:zoom="0.32396401"
     showgrid="false"
     id="namedview36"
     inkscape:window-height="719"
     inkscape:window-width="1366"
     inkscape:pageshadow="2"
     inkscape:pageopacity="0"
     guidetolerance="10"
     gridtolerance="10"
     objecttolerance="10"
     borderopacity="1"
     bordercolor="#666666"
     pagecolor="#ffffff" />
  <g
     transform="translate(18.518299,67.577225)"
     id="g871">
    <path
       d="m 458.65,182.05 c -0.53,-1.69 -1.13,-3.42 -1.82,-5.17 -1.06,-2.68 -5.74,-14.04 -20.07,-28.89 -4.74,-4.92 -12.95,-12.71 -24.63,-20.38 -15.13,-9.93 -28.14,-14.44 -31.32,-15.51 -4.04,-1.35 -12.77,-4.06 -25.85,-5.78 -5.42,-0.71 -31.97,-3.93 -67.51,3.35 -28.53,5.84 -49.95,15.91 -63.86,23.11 -61.32,31.73 -130.92,108.57 -122.86,102.79 6.35,-4.55 30.6,5.17 152.05,-49.57 0.99,-1.52 2.32,-3.5 3.95,-5.78 1.48,-2.06 3.95,-5.5 7.3,-9.43 4.87,-5.71 9.2,-9.65 10.64,-10.95 3.33,-2.97 9.05,-8.03 17.64,-12.77 5.07,-2.8 9.27,-4.46 11.86,-5.47 3.3,-1.29 7.7,-3.01 13.38,-4.26 4.44,-0.97 12.588,-3.939 20.558,-3.539 0,0 64.592,-3.761 119.932,49.459"
       fill="#227bc0"
       id="path2" />
    <path
       d="m 276.14,158.451 c -2.71,-0.41 -6.56,-0.87 -11.2,-1.03 -7.37,-0.25 -13.39,0.38 -22.1,1.72 -4.85,0.75 -19.16,2.95 -29.6,5.68 -41.59,10.85 -75.61,36.09 -77.75,37.71 -9.86,7.43 -22.66,18.37 -35.6799,33.65 4.4099,4.09 11.2299,10.53 19.4599,18.75 6.46,6.45 7.32,7.55 12.77,12.87 4.56,4.45 12.02,11.58 21.59,19.87 7.02,6.08 12.45,10.43 16.52,13.68 6.8,5.43 15.67,12.29 26.36,19.97 13.79,-28.59 27.57,-57.17 41.36,-85.76 0.05,-1.12 0.13,-2.69 0.3,-4.56 0.36,-3.98 0.9,-7.11 1.52,-10.34 1.42,-7.41 2.13,-11.12 3.04,-13.99 0.67,-2.1 0.88,-2.37 5.78,-13.38 4.59,-10.32 4.6,-10.5 5.47,-11.86 2.79,-4.35 5.88,-7.43 10.34,-11.86 1.91,-1.9 4.36,-4.2 6.69,-6.39 2.11,-1.96 3.88,-3.59 5.13,-4.73 z"
       fill="#5d4ea0"
       id="path4" />
    <path
       d="m 458.05,289.7 c -0.94,2.46 -2.32,5.84 -4.26,9.73 -6.8,13.65 -14.82,22.42 -18.85,26.76 -17.31,18.63 -37.02,27.78 -40.14,29.19 -24.95,11.3 -47.02,10.85 -71.77,10.34 -20.9,-0.43 -36.21,-3.45 -40.14,-4.26 -4.98,-1.02 -26.9,-5.72 -53.52,-18.85 -14.9,-7.35 -35.69,-19.52 -57.17,-39.23 0.02,-2.53 0.09,-6.09 0.3,-10.34 0.31,-6.14 0.74,-14.73 2.43,-24.33 0.88,-4.98 3.04,-15.58 8.21,-28.28 5.15,-12.65 10.99,-21.76 13.99,-26.15 16.41,-24.01 36.95,-37.22 47.74,-43.18 7.27,-4.01 17.78,-8.97 31.27,-12.65 -1.39,1.13 -3.28,2.73 -5.42,4.75 -2.33,2.2 -9.29,8.97 -16.02,19.46 -4.04,6.31 -11.14,17.63 -14.39,34.06 -2.35,11.86 -1.66,21.14 -1.01,28.99 0.76,9.28 1.7,20.75 7.5,33.65 7.2,16 17.9,25.37 24.73,31.22 18.99,16.27 38.54,21.38 44.2,22.71 17.55,4.12 31.32,2.41 44.2,0.81 5.73,-0.71 25.01,-3.42 47.44,-13.38 15.14,-6.72 27.14,-14.71 36.09,-20.68 6.08,-4.06 11.05,-7.68 14.59,-10.34 z"
       fill="#ed1978"
       id="path6" />
    <path
       d="m 342.48,302.271 c 36.617,0 66.3,-29.684 66.3,-66.3 0,-36.617 -29.683,-66.3 -66.3,-66.3 -36.616,0 -66.3,29.683 -66.3,66.3 0,36.616 29.684,66.3 66.3,66.3 z"
       fill="#41c1c3"
       id="path8" />
    <path
       d="m 371.733,176.473 c 14.339,7.05 25.649,19.041 31.85,33.766 L 342.48,235.97 Z"
       fill="#ffffff"
       id="path10" />
    <path
       d="m 342.48,281.792 c 25.307,0 45.822,-20.515 45.822,-45.822 0,-25.307 -20.515,-45.822 -45.822,-45.822 -25.307,0 -45.822,20.515 -45.822,45.822 0,25.307 20.515,45.822 45.822,45.822 z"
       fill="#227bc0"
       id="path12" />
    <path
       d="m 342.48,275.721 c 21.953,0 39.75,-17.797 39.75,-39.75 0,-21.954 -17.797,-39.75 -39.75,-39.75 -21.953,0 -39.75,17.796 -39.75,39.75 0,21.953 17.797,39.75 39.75,39.75 z"
       fill="#5d4ea0"
       id="path14" />
    <path
       d="m 362.506,201.634 c 6.005,3.502 10.986,8.518 14.447,14.546 l -34.473,19.791 z"
       fill="#ffffff"
       id="path16" />
    <path
       d="m 315.041,137.354 c 0.163,-0.335 76.019,-33.578 143.609,44.696 0.406,-3.825 -71.635,-62.687 -143.609,-44.696 z"
       fill="#227bc0"
       stroke="#227bc0"
       stroke-linecap="round"
       stroke-linejoin="round"
       id="path18" />
    <path
       d="m 220.799,403.766 c -19.498,0 -34.357,16.74 -34.357,35.36 0,18.746 15.298,35.047 34.232,35.047 8.401,0 17.743,-3.573 22.131,-11.034 l 0.69,5.015 c 0,3.449 2.132,6.27 5.58,6.27 3.448,0 6.27,-2.821 6.27,-6.27 l 0.125,-58.056 v -0.125 c 0,-3.449 -2.821,-6.27 -6.27,-6.27 -3.448,0 -5.58,2.821 -5.58,6.27 l -0.689,6.019 c -3.386,-5.831 -12.916,-12.226 -22.132,-12.226 z m 21.63,35.235 c 0,12.1 -9.655,22.633 -21.692,22.633 -12.101,0 -21.881,-10.533 -21.881,-22.696 0,-12.037 9.529,-22.633 21.818,-22.633 12.476,0 21.755,10.47 21.755,22.696 z"
       fill="#5d4ea0"
       stroke="#5d4ea0"
       stroke-width="2.5"
       id="path20" />
    <path
       d="m 277.413,392.857 v 12.539 h -8.15 c -3.26,0 -5.956,2.696 -5.956,5.956 0,3.26 2.696,5.956 5.956,5.956 h 8.088 l -0.063,39.31 v 0.564 c 0,9.718 5.893,16.991 16.426,16.991 4.64,0 8.84,-1.756 12.038,-4.201 1.505,-1.128 2.508,-3.134 2.508,-4.953 0,-3.385 -2.822,-6.207 -6.27,-6.207 -1.379,0 -2.884,0.627 -3.887,1.317 -1.254,0.878 -2.821,1.442 -4.765,1.442 -2.884,0 -3.511,-1.317 -3.511,-5.392 v -0.125 l 0.063,-38.809 h 8.464 c 3.26,0 5.956,-2.696 5.956,-5.956 0,-3.26 -2.696,-5.956 -5.956,-5.956 h -8.401 v -12.476 c 0,-3.449 -2.822,-6.27 -6.27,-6.27 -3.511,0 -6.27,2.884 -6.27,6.27 z"
       fill="#5d4ea0"
       stroke="#5d4ea0"
       stroke-width="2.5"
       id="path22" />
    <path
       d="m 348.949,403.766 c -19.498,0 -34.357,16.74 -34.357,35.36 0,18.746 15.298,35.047 34.232,35.047 8.401,0 17.743,-3.573 22.132,-11.034 l 0.689,5.015 c 0,3.449 2.132,6.27 5.58,6.27 3.448,0 6.27,-2.821 6.27,-6.27 l 0.125,-58.056 v -0.125 c 0,-3.449 -2.821,-6.27 -6.269,-6.27 -3.449,0 -5.58,2.821 -5.58,6.27 l -0.69,6.019 c -3.386,-5.831 -12.915,-12.226 -22.132,-12.226 z m 21.63,35.235 c 0,12.1 -9.655,22.633 -21.692,22.633 -12.101,0 -21.881,-10.533 -21.881,-22.696 0,-12.037 9.53,-22.633 21.818,-22.633 12.476,0 21.755,10.47 21.755,22.696 z"
       fill="#5d4ea0"
       stroke="#5d4ea0"
       stroke-width="2.5"
       id="path24" />
    <path
       d="m 130.106,379.995 -22.069,0.376 c -3.386,0.063 -6.144,2.947 -6.144,6.27 l -0.439,76.928 c 0,3.511 2.884,6.395 6.207,6.457 l 14.294,0.126 h 2.947 c 33.103,0 50.784,-18.746 50.784,-44.64 0,-22.633 -15.235,-45.517 -44.64,-45.517 z m 34.42,45.141 c 0,24.263 -17.242,32.351 -42.445,32.351 l -8.088,-0.125 0.376,-64.514 c 3.386,-0.126 6.771,-0.251 10.22,-0.251 24.137,0 39.937,9.279 39.937,32.539 z"
       fill="#227bc0"
       stroke="#227bc0"
       stroke-width="2.5"
       id="path26" />
    <path
       d="m 427.088,474.395 c 3.448,0 6.27,-2.822 6.27,-6.27 l -0.063,-78.432 c 0,-3.573 -2.759,-6.269 -6.583,-6.269 -3.26,0 -5.956,3.072 -5.956,6.269 l 0.063,78.432 c 0,3.448 2.821,6.27 6.269,6.27 z"
       fill="#ed1978"
       stroke="#ed1978"
       stroke-width="2.5"
       id="path28" />
    <path
       fill-rule="evenodd"
       clip-rule="evenodd"
       d="m 402.619,387.629 h 48.876 c 1.032,0 1.863,0.831 1.863,1.864 0,1.032 -0.831,1.863 -1.863,1.863 h -48.876 c -1.033,0 -1.864,-0.831 -1.864,-1.863 0,-1.033 0.831,-1.864 1.864,-1.864 z"
       fill="#ed1978"
       stroke="#ed1978"
       stroke-width="10.802"
       stroke-linecap="round"
       stroke-linejoin="round"
       id="path30" />
    <path
       fill-rule="evenodd"
       clip-rule="evenodd"
       d="m 402.619,471.719 h 48.876 c 1.032,0 1.863,0.831 1.863,1.863 0,1.033 -0.831,1.864 -1.863,1.864 h -48.876 c -1.033,0 -1.864,-0.831 -1.864,-1.864 0,-1.032 0.831,-1.863 1.864,-1.863 z"
       fill="#ed1978"
       stroke="#ed1978"
       stroke-width="10.802"
       stroke-linecap="round"
       stroke-linejoin="round"
       id="path32" />
  </g>
</svg>
