<?xml version="1.0" encoding="UTF-8"?>
<svg xmlns="http://www.w3.org/2000/svg" xmlns:xlink="http://www.w3.org/1999/xlink"
     width="1500" height="1100" viewBox="0 -1100 1500 1100">
<defs>
</defs>
<rect x="0" y="-1100" width="1500" height="1100" fill="#ffffff" />
<path d="M 950.0 -550.0A 400.0 400.0 0 0 0 912.8009659206948 -718.4501680824652L 550.0 -550.0 Z" stroke-width="10" stroke="white" fill="#e8e1fa" fill-opacity="0.5" />
<circle cx="1100" cy="-80" r="20" fill="#e8e1fa" fill-opacity="0.2" stroke-width="0" />
<text x="1150" y="-70" font-size="30">0</text>
<path d="M 912.8009659206948 -718.4501680824652A 400.0 400.0 0 0 0 808.122704364946 -855.569418449109L 550.0 -550.0 Z" stroke-width="10" stroke="white" fill="#968477" fill-opacity="0.5" />
<circle cx="1100" cy="-160" r="20" fill="#968477" fill-opacity="0.2" stroke-width="0" />
<text x="1150" y="-150" font-size="30">15</text>
<path d="M 808.122704364946 -855.569418449109A 400.0 400.0 0 0 0 729.1271908760252 -907.6498979293353L 550.0 -550.0 Z" stroke-width="10" stroke="white" fill="#762810" fill-opacity="0.5" />
<circle cx="1100" cy="-240" r="20" fill="#762810" fill-opacity="0.2" stroke-width="0" />
<text x="1150" y="-230" font-size="30">0</text>
<path d="M 729.1271908760252 -907.6498979293353A 400.0 400.0 0 0 0 323.2746983625848 -879.5385221752126L 550.0 -550.0 Z" stroke-width="10" stroke="white" fill="#f2ece9" fill-opacity="0.5" />
<circle cx="1100" cy="-320" r="20" fill="#f2ece9" fill-opacity="0.2" stroke-width="0" />
<text x="1150" y="-310" font-size="30">33</text>
<path d="M 323.2746983625848 -879.5385221752126A 400.0 400.0 0 0 0 323.27469836258484 -220.46147782478738L 550.0 -550.0 Z" stroke-width="10" stroke="white" fill="#ce5ec7" fill-opacity="0.5" />
<circle cx="1100" cy="-400" r="20" fill="#ce5ec7" fill-opacity="0.2" stroke-width="0" />
<text x="1150" y="-390" font-size="30">2</text>
<path d="M 323.27469836258484 -220.46147782478738A 400.0 400.0 0 0 0 802.0351374326846 -239.39045491278307L 550.0 -550.0 Z" stroke-width="10" stroke="white" fill="#211e17" fill-opacity="0.5" />
<circle cx="1100" cy="-480" r="20" fill="#211e17" fill-opacity="0.2" stroke-width="0" />
<text x="1150" y="-470" font-size="30">11</text>
<path d="M 802.0351374326846 -239.39045491278307A 400.0 400.0 0 0 0 950.0 -549.9999999999999L 550.0 -550.0 Z" stroke-width="10" stroke="white" fill="#1f35e6" fill-opacity="0.5" />
<circle cx="1100" cy="-560" r="20" fill="#1f35e6" fill-opacity="0.2" stroke-width="0" />
<text x="1150" y="-550" font-size="30">22</text>
<path d="M 850.0 -550.0A 300.0 300.0 0 0 0 830.4305030968599 -656.5773565671528L 550.0 -550.0 Z" stroke-width="10" stroke="white" fill="#e8e1fa" fill-opacity="0.5" />
<circle cx="1100" cy="-80" r="20" fill="#e8e1fa" fill-opacity="0.2" stroke-width="0" />
<text x="1150" y="-70" font-size="30">0</text>
<path d="M 830.4305030968599 -656.5773565671528A 300.0 300.0 0 0 0 830.4305030968599 -656.5773565671528L 550.0 -550.0 Z" stroke-width="10" stroke="white" fill="#968477" fill-opacity="0.5" />
<circle cx="1100" cy="-160" r="20" fill="#968477" fill-opacity="0.2" stroke-width="0" />
<text x="1150" y="-150" font-size="30">15</text>
<path d="M 830.4305030968599 -656.5773565671528A 300.0 300.0 0 0 0 830.4305030968599 -656.5773565671528L 550.0 -550.0 Z" stroke-width="10" stroke="white" fill="#762810" fill-opacity="0.5" />
<circle cx="1100" cy="-240" r="20" fill="#762810" fill-opacity="0.2" stroke-width="0" />
<text x="1150" y="-230" font-size="30">0</text>
<path d="M 830.4305030968599 -656.5773565671528A 300.0 300.0 0 0 0 830.4305030968599 -656.5773565671528L 550.0 -550.0 Z" stroke-width="10" stroke="white" fill="#f2ece9" fill-opacity="0.5" />
<circle cx="1100" cy="-320" r="20" fill="#f2ece9" fill-opacity="0.2" stroke-width="0" />
<text x="1150" y="-310" font-size="30">33</text>
<path d="M 830.4305030968599 -656.5773565671528A 300.0 300.0 0 1 0 336.90710235718944 -338.83320106088956L 550.0 -550.0 Z" stroke-width="10" stroke="white" fill="#ce5ec7" fill-opacity="0.5" />
<circle cx="1100" cy="-400" r="20" fill="#ce5ec7" fill-opacity="0.2" stroke-width="0" />
<text x="1150" y="-390" font-size="30">2</text>
<path d="M 336.90710235718944 -338.83320106088956A 300.0 300.0 0 0 0 850.0 -549.9999999999999L 550.0 -550.0 Z" stroke-width="10" stroke="white" fill="#211e17" fill-opacity="0.5" />
<circle cx="1100" cy="-480" r="20" fill="#211e17" fill-opacity="0.2" stroke-width="0" />
<text x="1150" y="-470" font-size="30">11</text>
<path d="M 850.0 -549.9999999999999A 300.0 300.0 0 0 0 850.0 -549.9999999999999L 550.0 -550.0 Z" stroke-width="10" stroke="white" fill="#1f35e6" fill-opacity="0.5" />
<circle cx="1100" cy="-560" r="20" fill="#1f35e6" fill-opacity="0.2" stroke-width="0" />
<text x="1150" y="-550" font-size="30">22</text>
<path d="M 750.0 -550.0A 200.0 200.0 0 0 0 724.6028226322376 -647.538988762727L 550.0 -550.0 Z" stroke-width="10" stroke="white" fill="#e8e1fa" fill-opacity="0.5" />
<circle cx="1100" cy="-80" r="20" fill="#e8e1fa" fill-opacity="0.2" stroke-width="0" />
<text x="1150" y="-70" font-size="30">0</text>
<path d="M 724.6028226322376 -647.538988762727A 200.0 200.0 0 0 0 491.4354457446899 -741.2333469478501L 550.0 -550.0 Z" stroke-width="10" stroke="white" fill="#968477" fill-opacity="0.5" />
<circle cx="1100" cy="-160" r="20" fill="#968477" fill-opacity="0.2" stroke-width="0" />
<text x="1150" y="-150" font-size="30">15</text>
<path d="M 491.4354457446899 -741.2333469478501A 200.0 200.0 0 0 0 356.4534106133002 -499.6043877229749L 550.0 -550.0 Z" stroke-width="10" stroke="white" fill="#762810" fill-opacity="0.5" />
<circle cx="1100" cy="-240" r="20" fill="#762810" fill-opacity="0.2" stroke-width="0" />
<text x="1150" y="-230" font-size="30">0</text>
<path d="M 356.4534106133002 -499.6043877229749A 200.0 200.0 0 0 0 367.75430192237286 -467.6197503512014L 550.0 -550.0 Z" stroke-width="10" stroke="white" fill="#f2ece9" fill-opacity="0.5" />
<circle cx="1100" cy="-320" r="20" fill="#f2ece9" fill-opacity="0.2" stroke-width="0" />
<text x="1150" y="-310" font-size="30">33</text>
<path d="M 367.75430192237286 -467.6197503512014A 200.0 200.0 0 0 0 592.1358539991453 -354.4889522104628L 550.0 -550.0 Z" stroke-width="10" stroke="white" fill="#ce5ec7" fill-opacity="0.5" />
<circle cx="1100" cy="-400" r="20" fill="#ce5ec7" fill-opacity="0.2" stroke-width="0" />
<text x="1150" y="-390" font-size="30">2</text>
<path d="M 592.1358539991453 -354.4889522104628A 200.0 200.0 0 0 0 682.1349446780163 -399.8655389494551L 550.0 -550.0 Z" stroke-width="10" stroke="white" fill="#211e17" fill-opacity="0.5" />
<circle cx="1100" cy="-480" r="20" fill="#211e17" fill-opacity="0.2" stroke-width="0" />
<text x="1150" y="-470" font-size="30">11</text>
<path d="M 682.1349446780163 -399.8655389494551A 200.0 200.0 0 0 0 750.0 -550.0L 550.0 -550.0 Z" stroke-width="10" stroke="white" fill="#1f35e6" fill-opacity="0.5" />
<circle cx="1100" cy="-560" r="20" fill="#1f35e6" fill-opacity="0.2" stroke-width="0" />
<text x="1150" y="-550" font-size="30">22</text>
<path d="M 650.0 -550.0A 100.0 100.0 0 0 0 646.8583161128631 -574.8689887164854L 550.0 -550.0 Z" stroke-width="10" stroke="white" fill="#e8e1fa" fill-opacity="0.5" />
<circle cx="1100" cy="-80" r="20" fill="#e8e1fa" fill-opacity="0.2" stroke-width="0" />
<text x="1150" y="-70" font-size="30">0</text>
<path d="M 646.8583161128631 -574.8689887164854A 100.0 100.0 0 0 0 603.5826794978997 -634.4327925502015L 550.0 -550.0 Z" stroke-width="10" stroke="white" fill="#968477" fill-opacity="0.5" />
<circle cx="1100" cy="-160" r="20" fill="#968477" fill-opacity="0.2" stroke-width="0" />
<text x="1150" y="-150" font-size="30">15</text>
<path d="M 603.5826794978997 -634.4327925502015A 100.0 100.0 0 0 0 486.257601025131 -627.0513242775789L 550.0 -550.0 Z" stroke-width="10" stroke="white" fill="#762810" fill-opacity="0.5" />
<circle cx="1100" cy="-240" r="20" fill="#762810" fill-opacity="0.2" stroke-width="0" />
<text x="1150" y="-230" font-size="30">0</text>
<path d="M 486.257601025131 -627.0513242775789A 100.0 100.0 0 0 0 486.25760102513107 -472.94867572242106L 550.0 -550.0 Z" stroke-width="10" stroke="white" fill="#f2ece9" fill-opacity="0.5" />
<circle cx="1100" cy="-320" r="20" fill="#f2ece9" fill-opacity="0.2" stroke-width="0" />
<text x="1150" y="-310" font-size="30">33</text>
<path d="M 486.25760102513107 -472.94867572242106A 100.0 100.0 0 0 0 556.2790519529314 -450.1973271571728L 550.0 -550.0 Z" stroke-width="10" stroke="white" fill="#ce5ec7" fill-opacity="0.5" />
<circle cx="1100" cy="-400" r="20" fill="#ce5ec7" fill-opacity="0.2" stroke-width="0" />
<text x="1150" y="-390" font-size="30">2</text>
<path d="M 556.2790519529314 -450.1973271571728A 100.0 100.0 0 0 0 646.8583161128631 -525.1310112835146L 550.0 -550.0 Z" stroke-width="10" stroke="white" fill="#211e17" fill-opacity="0.5" />
<circle cx="1100" cy="-480" r="20" fill="#211e17" fill-opacity="0.2" stroke-width="0" />
<text x="1150" y="-470" font-size="30">11</text>
<path d="M 646.8583161128631 -525.1310112835146A 100.0 100.0 0 0 0 650.0 -550.0L 550.0 -550.0 Z" stroke-width="10" stroke="white" fill="#1f35e6" fill-opacity="0.5" />
<circle cx="1100" cy="-560" r="20" fill="#1f35e6" fill-opacity="0.2" stroke-width="0" />
<text x="1150" y="-550" font-size="30">22</text>
</svg>