<?xml version="1.0" encoding="UTF-8"?>
<svg xmlns="http://www.w3.org/2000/svg" xmlns:xlink="http://www.w3.org/1999/xlink"
     width="1500" height="1100" viewBox="0 -1100 1500 1100">
<defs>
</defs>
<rect x="0" y="-1100" width="1500" height="1100" fill="#ffffff" />
<path d="M 1050.0 -550.0A 500.0 500.0 0 0 0 1003.5012074008686 -760.5627101030816L 550.0 -550.0 Z" stroke-width="10" stroke="white" fill="#85ce17" fill-opacity="0.51" />
<circle cx="550.0" cy="-550.0" r="437.5" fill="white" fill-opacity="1" stroke="white" stroke-width="10" />
<text x="13" y="-545.0" font-size="50" transform="rotate(90,510.0,-47)">0: 6.91%</text>
<path d="M 987.5 -550.0A 437.5 437.5 0 0 0 946.8135564757599 -734.2423713401963L 550.0 -550.0 Z" stroke-width="10" stroke="white" fill="#f47507" fill-opacity="0.51" />
<circle cx="550.0" cy="-550.0" r="375.0" fill="white" fill-opacity="1" stroke="white" stroke-width="10" />
<text x="68" y="-537.1875" font-size="50" transform="rotate(90,510.0,-102)">15: 6.91%</text>
<path d="M 925.0 -550.0A 375.0 375.0 0 0 0 914.508592780154 -638.0822671678688L 550.0 -550.0 Z" stroke-width="10" stroke="white" fill="#7e2bb2" fill-opacity="0.51" />
<circle cx="550.0" cy="-550.0" r="312.5" fill="white" fill-opacity="1" stroke="white" stroke-width="10" />
<text x="123" y="-529.375" font-size="50" transform="rotate(90,510.0,-157)">0: 3.77%</text>
<path d="M 862.5 -550.0A 312.5 312.5 0 0 0 700.8725633533578 -823.6671694361365L 550.0 -550.0 Z" stroke-width="10" stroke="white" fill="#2a2512" fill-opacity="0.51" />
<circle cx="550.0" cy="-550.0" r="250.0" fill="white" fill-opacity="1" stroke="white" stroke-width="10" />
<text x="178" y="-521.5625" font-size="50" transform="rotate(90,510.0,-212)">33: 16.9%</text>
<path d="M 800.0 -550.0A 250.0 250.0 0 0 0 460.63863250805275 -783.4835026291347L 550.0 -550.0 Z" stroke-width="10" stroke="white" fill="#4dcec2" fill-opacity="0.51" />
<circle cx="550.0" cy="-550.0" r="187.5" fill="white" fill-opacity="1" stroke="white" stroke-width="10" />
<text x="233" y="-513.75" font-size="50" transform="rotate(90,510.0,-267)">2: 30.8%</text>
<path d="M 737.5 -550.0A 187.5 187.5 0 0 0 602.9864076998873 -729.8574174146324L 550.0 -550.0 Z" stroke-width="10" stroke="white" fill="#14e4ac" fill-opacity="0.51" />
<circle cx="550.0" cy="-550.0" r="125.0" fill="white" fill-opacity="1" stroke="white" stroke-width="10" />
<text x="288" y="-505.9375" font-size="50" transform="rotate(90,510.0,-322)">11: 20.4%</text>
<path d="M 675.0 -550.0A 125.0 125.0 0 0 0 628.7609804477139 -647.0654828397553L 550.0 -550.0 Z" stroke-width="10" stroke="white" fill="#f190f" fill-opacity="0.51" />
<circle cx="550.0" cy="-550.0" r="62.5" fill="white" fill-opacity="1" stroke="white" stroke-width="10" />
<text x="343" y="-498.125" font-size="50" transform="rotate(90,510.0,-377)">22: 14.1%</text>
</svg>