<?xml version="1.0" encoding="UTF-8"?>
<svg xmlns="http://www.w3.org/2000/svg" xmlns:xlink="http://www.w3.org/1999/xlink"
     width="1500" height="1100" viewBox="0 -1100 1500 1100">
<defs>
</defs>
<rect x="0" y="-1100" width="1500" height="1100" fill="#ffffff" />
<path d="M 883.3333333333334 -550.0A 333.33333333333337 333.33333333333337 0 0 0 816.4809211345005 -750.2474214126596L 550.0 -550.0 Z" stroke-width="10" stroke="white" fill="#189221" fill-opacity="0.5" />
<circle cx="1100" cy="-80" r="20" fill="#189221" fill-opacity="0.2" stroke-width="0" />
<text x="1150" y="-70" font-size="30">10</text>
<path d="M 816.4809211345005 -750.2474214126596A 333.33333333333337 333.33333333333337 0 0 0 590.178893418441 -880.9029580326846L 550.0 -550.0 Z" stroke-width="10" stroke="white" fill="#1ff9f4" fill-opacity="0.5" />
<circle cx="1100" cy="-160" r="20" fill="#1ff9f4" fill-opacity="0.2" stroke-width="0" />
<text x="1150" y="-150" font-size="30">20</text>
<path d="M 590.178893418441 -880.9029580326846A 333.33333333333337 333.33333333333337 0 0 0 339.1848748015409 -808.2016539425515L 550.0 -550.0 Z" stroke-width="10" stroke="white" fill="#22cbfa" fill-opacity="0.5" />
<circle cx="1100" cy="-240" r="20" fill="#22cbfa" fill-opacity="0.2" stroke-width="0" />
<text x="1150" y="-230" font-size="30">20</text>
<path d="M 339.1848748015409 -808.2016539425515A 333.33333333333337 333.33333333333337 0 0 0 217.74756395526333 -576.822189572242L 550.0 -550.0 Z" stroke-width="10" stroke="white" fill="#e4126f" fill-opacity="0.5" />
<circle cx="1100" cy="-320" r="20" fill="#e4126f" fill-opacity="0.2" stroke-width="0" />
<text x="1150" y="-310" font-size="30">20</text>
<path d="M 217.74756395526333 -576.822189572242A 333.33333333333337 333.33333333333337 0 0 0 300.49641727629967 -328.9591139197349L 550.0 -550.0 Z" stroke-width="10" stroke="white" fill="#640654" fill-opacity="0.5" />
<circle cx="1100" cy="-400" r="20" fill="#640654" fill-opacity="0.2" stroke-width="0" />
<text x="1150" y="-390" font-size="30">15</text>
<path d="M 300.49641727629967 -328.9591139197349A 333.33333333333337 333.33333333333337 0 0 0 590.1788934184408 -219.09704196731525L 550.0 -550.0 Z" stroke-width="10" stroke="white" fill="#c48a5" fill-opacity="0.5" />
<circle cx="1100" cy="-480" r="20" fill="#c48a5" fill-opacity="0.2" stroke-width="0" />
<text x="1150" y="-470" font-size="30">15</text>
<path d="M 590.1788934184408 -219.09704196731525A 333.33333333333337 333.33333333333337 0 0 0 816.4809211345002 -349.7525785873401L 550.0 -550.0 Z" stroke-width="10" stroke="white" fill="#79d4d" fill-opacity="0.5" />
<circle cx="1100" cy="-560" r="20" fill="#79d4d" fill-opacity="0.2" stroke-width="0" />
<text x="1150" y="-550" font-size="30">10</text>
<path d="M 816.4809211345002 -349.7525785873401A 333.33333333333337 333.33333333333337 0 0 0 883.3333333333334 -549.9999999999997L 550.0 -550.0 Z" stroke-width="10" stroke="white" fill="#5bacc0" fill-opacity="0.5" />
<circle cx="1100" cy="-640" r="20" fill="#5bacc0" fill-opacity="0.2" stroke-width="0" />
<text x="1150" y="-630" font-size="30">10</text>
<path d="M 550.0 -550.0A 5.684341886080802e-14 5.684341886080802e-14 0 0 0 550.0 -550.0L 550.0 -550.0 Z" stroke-width="10" stroke="white" fill="#189221" fill-opacity="0.5" />
<circle cx="1100" cy="-80" r="20" fill="#189221" fill-opacity="0.2" stroke-width="0" />
<text x="1150" y="-70" font-size="30">10</text>
<path d="M 550.0 -550.0A 5.684341886080802e-14 5.684341886080802e-14 0 0 0 550.0 -550.0L 550.0 -550.0 Z" stroke-width="10" stroke="white" fill="#1ff9f4" fill-opacity="0.5" />
<circle cx="1100" cy="-160" r="20" fill="#1ff9f4" fill-opacity="0.2" stroke-width="0" />
<text x="1150" y="-150" font-size="30">20</text>
<path d="M 550.0 -550.0A 5.684341886080802e-14 5.684341886080802e-14 0 0 0 550.0 -550.0L 550.0 -550.0 Z" stroke-width="10" stroke="white" fill="#22cbfa" fill-opacity="0.5" />
<circle cx="1100" cy="-240" r="20" fill="#22cbfa" fill-opacity="0.2" stroke-width="0" />
<text x="1150" y="-230" font-size="30">20</text>
<path d="M 550.0 -550.0A 5.684341886080802e-14 5.684341886080802e-14 0 0 0 550.0 -550.0L 550.0 -550.0 Z" stroke-width="10" stroke="white" fill="#e4126f" fill-opacity="0.5" />
<circle cx="1100" cy="-320" r="20" fill="#e4126f" fill-opacity="0.2" stroke-width="0" />
<text x="1150" y="-310" font-size="30">20</text>
<path d="M 550.0 -550.0A 5.684341886080802e-14 5.684341886080802e-14 0 0 0 550.0 -550.0L 550.0 -550.0 Z" stroke-width="10" stroke="white" fill="#640654" fill-opacity="0.5" />
<circle cx="1100" cy="-400" r="20" fill="#640654" fill-opacity="0.2" stroke-width="0" />
<text x="1150" y="-390" font-size="30">15</text>
<path d="M 550.0 -550.0A 5.684341886080802e-14 5.684341886080802e-14 0 0 0 550.0 -550.0L 550.0 -550.0 Z" stroke-width="10" stroke="white" fill="#c48a5" fill-opacity="0.5" />
<circle cx="1100" cy="-480" r="20" fill="#c48a5" fill-opacity="0.2" stroke-width="0" />
<text x="1150" y="-470" font-size="30">15</text>
<path d="M 550.0 -550.0A 5.684341886080802e-14 5.684341886080802e-14 0 0 0 550.0 -550.0L 550.0 -550.0 Z" stroke-width="10" stroke="white" fill="#79d4d" fill-opacity="0.5" />
<circle cx="1100" cy="-560" r="20" fill="#79d4d" fill-opacity="0.2" stroke-width="0" />
<text x="1150" y="-550" font-size="30">10</text>
<path d="M 550.0 -550.0A 5.684341886080802e-14 5.684341886080802e-14 0 0 0 550.0 -550.0L 550.0 -550.0 Z" stroke-width="10" stroke="white" fill="#5bacc0" fill-opacity="0.5" />
<circle cx="1100" cy="-640" r="20" fill="#5bacc0" fill-opacity="0.2" stroke-width="0" />
<text x="1150" y="-630" font-size="30">10</text>
</svg>