<?xml version="1.0" encoding="UTF-8"?>
<svg xmlns="http://www.w3.org/2000/svg" xmlns:xlink="http://www.w3.org/1999/xlink"
     width="1125.0" height="1200.0" viewBox="0 -1200.0 1125.0 1200.0">
<defs>
</defs>
<rect x="0" y="-1200.0" width="1125.0" height="1200.0" fill="#ffffff" />
<path d="M125.0,-200.0 h1000" stroke-width="0.02733333333333333" stroke="lightgray" fill="gray" fill-opacity="0" />
<path d="M125.0,-325.00000000000006 h1000" stroke-width="0.02733333333333333" stroke="lightgray" fill="gray" fill-opacity="0" />
<path d="M125.0,-450.0000000000001 h1000" stroke-width="0.02733333333333333" stroke="lightgray" fill="gray" fill-opacity="0" />
<path d="M125.0,-575.0000000000002 h1000" stroke-width="0.02733333333333333" stroke="lightgray" fill="gray" fill-opacity="0" />
<path d="M125.0,-700.0000000000002 h1000" stroke-width="0.02733333333333333" stroke="lightgray" fill="gray" fill-opacity="0" />
<path d="M125.0,-825.0000000000002 h1000" stroke-width="0.02733333333333333" stroke="lightgray" fill="gray" fill-opacity="0" />
<path d="M125.0,-950.0000000000003 h1000" stroke-width="0.02733333333333333" stroke="lightgray" fill="gray" fill-opacity="0" />
<path d="M125.0,-1075.0000000000005 h1000" stroke-width="0.02733333333333333" stroke="lightgray" fill="gray" fill-opacity="0" />
<circle cx="250.0" cy="-200.0" r="6.25" fill="#74e393" stroke-width="0" stroke="black" id="0" />
<circle cx="375.0" cy="-809.7560975609757" r="6.25" fill="#74e393" stroke-width="0" stroke="black" id="1" />
<circle cx="500.0" cy="-200.0" r="6.25" fill="#74e393" stroke-width="0" stroke="black" id="2" />
<circle cx="625.0" cy="-2760.9756097560976" r="6.25" fill="#74e393" stroke-width="0" stroke="black" id="3" />
<circle cx="750.0" cy="-5443.90243902439" r="6.25" fill="#74e393" stroke-width="0" stroke="black" id="4" />
<circle cx="875.0" cy="-3431.707317073171" r="6.25" fill="#74e393" stroke-width="0" stroke="black" id="5" />
<circle cx="1000.0" cy="-2212.19512195122" r="6.25" fill="#74e393" stroke-width="0" stroke="black" id="6" />
<circle cx="250.0" cy="-2151.219512195122" r="6.25" fill="#25dbd7" stroke-width="0" stroke="black" id="7" />
<circle cx="375.0" cy="-2578.0487804878053" r="6.25" fill="#25dbd7" stroke-width="0" stroke="black" id="8" />
<circle cx="500.0" cy="-2760.9756097560976" r="6.25" fill="#25dbd7" stroke-width="0" stroke="black" id="9" />
<circle cx="625.0" cy="-1419.5121951219514" r="6.25" fill="#25dbd7" stroke-width="0" stroke="black" id="10" />
<circle cx="750.0" cy="-5443.90243902439" r="6.25" fill="#25dbd7" stroke-width="0" stroke="black" id="11" />
<circle cx="875.0" cy="-3431.707317073171" r="6.25" fill="#25dbd7" stroke-width="0" stroke="black" id="12" />
<circle cx="1000.0" cy="531.7073170731708" r="6.25" fill="#25dbd7" stroke-width="0" stroke="black" id="13" />
<circle cx="250.0" cy="-200.0" r="5.0" fill="black" stroke-width="0" stroke="black" />
<text x="230.0" y="-148.84615384615384" font-size="13.333333333333334" id="14" transform="rotate(90,249.0,-153.84615384615384)">السعر</text>
<circle cx="375.0" cy="-200.0" r="5.0" fill="black" stroke-width="0" stroke="black" />
<text x="355.0" y="-148.84615384615384" font-size="13.333333333333334" id="15" transform="rotate(90,374.0,-153.84615384615384)">0</text>
<circle cx="500.0" cy="-200.0" r="5.0" fill="black" stroke-width="0" stroke="black" />
<text x="480.0" y="-148.84615384615384" font-size="13.333333333333334" id="16" transform="rotate(90,499.0,-153.84615384615384)">15</text>
<circle cx="625.0" cy="-200.0" r="5.0" fill="black" stroke-width="0" stroke="black" />
<text x="605.0" y="-148.84615384615384" font-size="13.333333333333334" id="17" transform="rotate(90,624.0,-153.84615384615384)">0</text>
<circle cx="750.0" cy="-200.0" r="5.0" fill="black" stroke-width="0" stroke="black" />
<text x="730.0" y="-148.84615384615384" font-size="13.333333333333334" id="18" transform="rotate(90,749.0,-153.84615384615384)">33</text>
<circle cx="875.0" cy="-200.0" r="5.0" fill="black" stroke-width="0" stroke="black" />
<text x="855.0" y="-148.84615384615384" font-size="13.333333333333334" id="19" transform="rotate(90,874.0,-153.84615384615384)">2</text>
<circle cx="1000.0" cy="-200.0" r="5.0" fill="black" stroke-width="0" stroke="black" />
<text x="980.0" y="-148.84615384615384" font-size="13.333333333333334" id="20" transform="rotate(90,999.0,-153.84615384615384)">111</text>
<circle cx="22.5" cy="-58.0" r="18.75" fill="black" stroke-width="0" stroke="black" />
<text x="97.5" y="-68.75" font-size="37.5" id="21">X:السعر</text>
<circle cx="247.5" cy="-58.0" r="18.75" fill="#74e393" stroke-width="0" stroke="black" />
<text x="322.5" y="-68.75" font-size="37.5" id="21">الحجم</text>
<circle cx="472.5" cy="-58.0" r="18.75" fill="#25dbd7" stroke-width="0" stroke="black" />
<text x="547.5" y="-68.75" font-size="37.5" id="21">الكمية</text>
<text x="12.5" y="-200.0" font-size="15.625" id="21">12.0</text>
<text x="12.5" y="-325.00000000000006" font-size="15.625" id="22">14.05</text>
<text x="12.5" y="-450.0000000000001" font-size="15.625" id="23">16.1</text>
<text x="12.5" y="-575.0000000000002" font-size="15.625" id="24">18.15000...</text>
<text x="12.5" y="-700.0000000000002" font-size="15.625" id="25">20.20000...</text>
<text x="12.5" y="-825.0000000000002" font-size="15.625" id="26">22.25000...</text>
<text x="12.5" y="-950.0000000000003" font-size="15.625" id="27">24.30000...</text>
<text x="12.5" y="-1075.0000000000005" font-size="15.625" id="28">26.35000...</text>
<path d="M125.0,-200.0 L250.0,-200.0 L375.0,-809.7560975609757 L500.0,-200.0 L625.0,-2760.9756097560976 L750.0,-5443.90243902439 L875.0,-3431.707317073171 L1000.0,-2212.19512195122 V-200.0" stroke-width="2.5" stroke="#74e393" fill="#74e393" fill-opacity="0" id="29" />
<path d="M125.0,-200.0 L250.0,-2151.219512195122 L375.0,-2578.0487804878053 L500.0,-2760.9756097560976 L625.0,-1419.5121951219514 L750.0,-5443.90243902439 L875.0,-3431.707317073171 L1000.0,531.7073170731708 V-200.0" stroke-width="2.5" stroke="#25dbd7" fill="#25dbd7" fill-opacity="0" id="30" />
</svg>