<?xml version="1.0" encoding="UTF-8"?>
<svg xmlns="http://www.w3.org/2000/svg" xmlns:xlink="http://www.w3.org/1999/xlink"
     width="562.5" height="600.0" viewBox="0 -600.0 562.5 600.0">
<defs>
</defs>
<rect x="0" y="-600.0" width="562.5" height="600.0" fill="#ffffff" />
<path d="M62.5,-100.0 h500" stroke-width="0.6553333333333333" stroke="lightgray" fill="gray" fill-opacity="0" />
<path d="M62.5,-150.0 h500" stroke-width="0.6553333333333333" stroke="lightgray" fill="gray" fill-opacity="0" />
<path d="M62.5,-200.0 h500" stroke-width="0.6553333333333333" stroke="lightgray" fill="gray" fill-opacity="0" />
<path d="M62.5,-250.0 h500" stroke-width="0.6553333333333333" stroke="lightgray" fill="gray" fill-opacity="0" />
<path d="M62.5,-300.0 h500" stroke-width="0.6553333333333333" stroke="lightgray" fill="gray" fill-opacity="0" />
<path d="M62.5,-350.0 h500" stroke-width="0.6553333333333333" stroke="lightgray" fill="gray" fill-opacity="0" />
<path d="M62.5,-400.0 h500" stroke-width="0.6553333333333333" stroke="lightgray" fill="gray" fill-opacity="0" />
<path d="M62.5,-450.0 h500" stroke-width="0.6553333333333333" stroke="lightgray" fill="gray" fill-opacity="0" />
<path d="M62.5,-500.0 h500" stroke-width="0.6553333333333333" stroke="lightgray" fill="gray" fill-opacity="0" />
<path d="M62.5,-550.0 h500" stroke-width="0.6553333333333333" stroke="lightgray" fill="gray" fill-opacity="0" />
<circle cx="125.0" cy="-100.0" r="2.5" fill="black" stroke-width="0" stroke="black" />
<text x="115.0" y="-74.42307692307692" font-size="6.666666666666667" id="0" transform="rotate(90,124.0,-76.92307692307692)">size</text>
<circle cx="187.5" cy="-100.0" r="2.5" fill="black" stroke-width="0" stroke="black" />
<text x="177.5" y="-74.42307692307692" font-size="6.666666666666667" id="1" transform="rotate(90,186.5,-76.92307692307692)">Huge</text>
<circle cx="250.0" cy="-100.0" r="2.5" fill="black" stroke-width="0" stroke="black" />
<text x="240.0" y="-74.42307692307692" font-size="6.666666666666667" id="2" transform="rotate(90,249.0,-76.92307692307692)">Tiny</text>
<circle cx="312.5" cy="-100.0" r="2.5" fill="black" stroke-width="0" stroke="black" />
<text x="302.5" y="-74.42307692307692" font-size="6.666666666666667" id="3" transform="rotate(90,311.5,-76.92307692307692)">Large</text>
<circle cx="375.0" cy="-100.0" r="2.5" fill="black" stroke-width="0" stroke="black" />
<text x="365.0" y="-74.42307692307692" font-size="6.666666666666667" id="4" transform="rotate(90,374.0,-76.92307692307692)">Small</text>
<circle cx="437.5" cy="-100.0" r="2.5" fill="black" stroke-width="0" stroke="black" />
<text x="427.5" y="-74.42307692307692" font-size="6.666666666666667" id="5" transform="rotate(90,436.5,-76.92307692307692)">Extra sm...</text>
<circle cx="500.0" cy="-100.0" r="2.5" fill="black" stroke-width="0" stroke="black" />
<text x="490.0" y="-74.42307692307692" font-size="6.666666666666667" id="6" transform="rotate(90,499.0,-76.92307692307692)">Extra La...</text>
<circle cx="11.25" cy="-33.0" r="4.017857142857143" fill="black" stroke-width="0" stroke="black" />
<text x="27.321428571428573" y="-29.017857142857142" font-size="8.035714285714286" id="7">X:size</text>
<circle cx="73.75" cy="-33.0" r="4.017857142857143" fill="#3066BE" stroke-width="0" stroke="black" />
<text x="89.82142857142857" y="-29.017857142857142" font-size="8.035714285714286" id="7">table</text>
<circle cx="136.25" cy="-33.0" r="4.017857142857143" fill="#D0D51E" stroke-width="0" stroke="black" />
<text x="152.32142857142858" y="-29.017857142857142" font-size="8.035714285714286" id="7">IT</text>
<circle cx="198.75" cy="-33.0" r="4.017857142857143" fill="#D8876E" stroke-width="0" stroke="black" />
<text x="214.82142857142858" y="-29.017857142857142" font-size="8.035714285714286" id="7">Kareem</text>
<circle cx="261.25" cy="-33.0" r="4.017857142857143" fill="#D0D51E" stroke-width="0" stroke="black" />
<text x="277.32142857142856" y="-29.017857142857142" font-size="8.035714285714286" id="7">IT</text>
<circle cx="323.75" cy="-33.0" r="4.017857142857143" fill="#D8876E" stroke-width="0" stroke="black" />
<text x="339.82142857142856" y="-29.017857142857142" font-size="8.035714285714286" id="7">Kareem</text>
<circle cx="386.25" cy="-33.0" r="4.017857142857143" fill="#D0D51E" stroke-width="0" stroke="black" />
<text x="402.32142857142856" y="-29.017857142857142" font-size="8.035714285714286" id="7">IT</text>
<text x="6.25" y="-100.0" font-size="7.8125" id="7">-98.3</text>
<text x="6.25" y="-150.0" font-size="7.8125" id="8">-49.15</text>
<text x="6.25" y="-200.0" font-size="7.8125" id="9">0.0</text>
<text x="6.25" y="-250.0" font-size="7.8125" id="10">49.15</text>
<text x="6.25" y="-300.0" font-size="7.8125" id="11">98.3</text>
<text x="6.25" y="-350.0" font-size="7.8125" id="12">147.45</text>
<text x="6.25" y="-400.0" font-size="7.8125" id="13">196.6</text>
<text x="6.25" y="-450.0" font-size="7.8125" id="14">245.75</text>
<text x="6.25" y="-500.0" font-size="7.8125" id="15">294.9</text>
<text x="6.25" y="-550.0" font-size="7.8125" id="16">344.0499...</text>
</svg>