<?xml version="1.0" encoding="UTF-8"?>
<svg xmlns="http://www.w3.org/2000/svg" xmlns:xlink="http://www.w3.org/1999/xlink"
     width="1500" height="1100" viewBox="0 -1100 1500 1100">
<defs>
</defs>
<rect x="0" y="-1100" width="1500" height="1100" fill="#ffffff" />
<path d="M 1050.0 -550.0A 500.0 500.0 0 1 0 1049.9999991463937 -549.9707834600518L 550.0 -550.0 Z" stroke-width="10" stroke="white" fill="#2dc3af" fill-opacity="1" />
<circle cx="1100" cy="-80" r="20" fill="#2dc3af" fill-opacity="1" stroke-width="0" />
<text x="1150" y="-70" font-size="30">Huge</text>
<path d="M 1049.9999991463937 -549.9707834600518A 500.0 500.0 0 0 0 1049.9999993995443 -549.9754958052005L 550.0 -550.0 Z" stroke-width="10" stroke="white" fill="#433b5" fill-opacity="1" />
<circle cx="1100" cy="-160" r="20" fill="#433b5" fill-opacity="1" stroke-width="0" />
<text x="1150" y="-150" font-size="30">Tiny</text>
<path d="M 1049.9999993995443 -549.9754958052005A 500.0 500.0 0 0 0 1049.999999543638 -549.9786373686345L 550.0 -550.0 Z" stroke-width="10" stroke="white" fill="#15aa1a" fill-opacity="1" />
<circle cx="1100" cy="-240" r="20" fill="#15aa1a" fill-opacity="1" stroke-width="0" />
<text x="1150" y="-230" font-size="30">Large</text>
<path d="M 1049.999999543638 -549.9786373686345A 500.0 500.0 0 0 0 1049.9999998790995 -549.989004527971L 550.0 -550.0 Z" stroke-width="10" stroke="white" fill="#f2138" fill-opacity="1" />
<circle cx="1100" cy="-320" r="20" fill="#f2138" fill-opacity="1" stroke-width="0" />
<text x="1150" y="-310" font-size="30">Small</text>
<path d="M 1049.9999998790995 -549.989004527971A 500.0 500.0 0 0 0 1049.999999892522 -549.9896328406585L 550.0 -550.0 Z" stroke-width="10" stroke="white" fill="#ebd9fb" fill-opacity="1" />
<circle cx="1100" cy="-400" r="20" fill="#ebd9fb" fill-opacity="1" stroke-width="0" />
<text x="1150" y="-390" font-size="30">Extra small</text>
<path d="M 1049.999999892522 -549.9896328406585A 500.0 500.0 0 0 0 1049.999999952232 -549.993088560439L 550.0 -550.0 Z" stroke-width="10" stroke="white" fill="#3fff63" fill-opacity="1" />
<circle cx="1100" cy="-480" r="20" fill="#3fff63" fill-opacity="1" stroke-width="0" />
<text x="1150" y="-470" font-size="30">Extra Large</text>
<path d="M 1049.999999952232 -549.993088560439A 500.0 500.0 0 0 0 1050.0 -549.9999999999999L 550.0 -550.0 Z" stroke-width="10" stroke="white" fill="#a8428f" fill-opacity="1" />
<circle cx="1100" cy="-560" r="20" fill="#a8428f" fill-opacity="1" stroke-width="0" />
<text x="1150" y="-550" font-size="30">Middle</text>
<path d="M 883.3333333333334 -550.0A 333.33333333333337 333.33333333333337 0 0 0 863.878132553042 -662.2124280823034L 550.0 -550.0 Z" stroke-width="10" stroke="white" fill="#2dc3af" fill-opacity="1" />
<circle cx="1100" cy="-80" r="20" fill="#2dc3af" fill-opacity="1" stroke-width="0" />
<text x="1150" y="-70" font-size="30">Huge</text>
<path d="M 863.878132553042 -662.2124280823034A 333.33333333333337 333.33333333333337 0 0 0 863.878132553042 -662.2124280823034L 550.0 -550.0 Z" stroke-width="10" stroke="white" fill="#433b5" fill-opacity="1" />
<circle cx="1100" cy="-160" r="20" fill="#433b5" fill-opacity="1" stroke-width="0" />
<text x="1150" y="-150" font-size="30">Tiny</text>
<path d="M 863.878132553042 -662.2124280823034A 333.33333333333337 333.33333333333337 0 0 0 807.7835592365766 -761.3261642542956L 550.0 -550.0 Z" stroke-width="10" stroke="white" fill="#15aa1a" fill-opacity="1" />
<circle cx="1100" cy="-240" r="20" fill="#15aa1a" fill-opacity="1" stroke-width="0" />
<text x="1150" y="-230" font-size="30">Large</text>
<path d="M 807.7835592365766 -761.3261642542956A 333.33333333333337 333.33333333333337 0 0 0 807.7835592365766 -761.3261642542956L 550.0 -550.0 Z" stroke-width="10" stroke="white" fill="#f2138" fill-opacity="1" />
<circle cx="1100" cy="-320" r="20" fill="#f2138" fill-opacity="1" stroke-width="0" />
<text x="1150" y="-310" font-size="30">Small</text>
<path d="M 807.7835592365766 -761.3261642542956A 333.33333333333337 333.33333333333337 0 1 0 345.3812860591295 -286.86069655732666L 550.0 -550.0 Z" stroke-width="10" stroke="white" fill="#ebd9fb" fill-opacity="1" />
<circle cx="1100" cy="-400" r="20" fill="#ebd9fb" fill-opacity="1" stroke-width="0" />
<text x="1150" y="-390" font-size="30">Extra small</text>
<path d="M 345.3812860591295 -286.86069655732666A 333.33333333333337 333.33333333333337 0 0 0 883.3333333333334 -549.9999999999999L 550.0 -550.0 Z" stroke-width="10" stroke="white" fill="#3fff63" fill-opacity="1" />
<circle cx="1100" cy="-480" r="20" fill="#3fff63" fill-opacity="1" stroke-width="0" />
<text x="1150" y="-470" font-size="30">Extra Large</text>
<path d="M 883.3333333333334 -549.9999999999999A 333.33333333333337 333.33333333333337 0 0 0 883.3333333333334 -549.9999999999999L 550.0 -550.0 Z" stroke-width="10" stroke="white" fill="#a8428f" fill-opacity="1" />
<circle cx="1100" cy="-560" r="20" fill="#a8428f" fill-opacity="1" stroke-width="0" />
<text x="1150" y="-550" font-size="30">Middle</text>
<path d="M 716.6666666666667 -550.0A 166.6666666666667 166.6666666666667 0 0 0 702.8685502509089 -616.4001816410403L 550.0 -550.0 Z" stroke-width="10" stroke="white" fill="#2dc3af" fill-opacity="1" />
<circle cx="1100" cy="-80" r="20" fill="#2dc3af" fill-opacity="1" stroke-width="0" />
<text x="1150" y="-70" font-size="30">Huge</text>
<path d="M 702.8685502509089 -616.4001816410403A 166.6666666666667 166.6666666666667 0 0 0 561.3737355607785 -716.2781281984232L 550.0 -550.0 Z" stroke-width="10" stroke="white" fill="#433b5" fill-opacity="1" />
<circle cx="1100" cy="-160" r="20" fill="#433b5" fill-opacity="1" stroke-width="0" />
<text x="1150" y="-150" font-size="30">Tiny</text>
<path d="M 561.3737355607785 -716.2781281984232A 166.6666666666667 166.6666666666667 0 0 0 397.1314497490911 -616.4001816410403L 550.0 -550.0 Z" stroke-width="10" stroke="white" fill="#15aa1a" fill-opacity="1" />
<circle cx="1100" cy="-240" r="20" fill="#15aa1a" fill-opacity="1" stroke-width="0" />
<text x="1150" y="-230" font-size="30">Large</text>
<path d="M 397.1314497490911 -616.4001816410403A 166.6666666666667 166.6666666666667 0 0 0 453.88661298085543 -413.8383511649263L 550.0 -550.0 Z" stroke-width="10" stroke="white" fill="#f2138" fill-opacity="1" />
<circle cx="1100" cy="-320" r="20" fill="#f2138" fill-opacity="1" stroke-width="0" />
<text x="1150" y="-310" font-size="30">Small</text>
<path d="M 453.88661298085543 -413.8383511649263A 166.6666666666667 166.6666666666667 0 0 0 626.6775062885254 -402.01913026627074L 550.0 -550.0 Z" stroke-width="10" stroke="white" fill="#ebd9fb" fill-opacity="1" />
<circle cx="1100" cy="-400" r="20" fill="#ebd9fb" fill-opacity="1" stroke-width="0" />
<text x="1150" y="-390" font-size="30">Extra small</text>
<path d="M 626.6775062885254 -402.01913026627074A 166.6666666666667 166.6666666666667 0 0 0 679.2852151174034 -444.8186759456578L 550.0 -550.0 Z" stroke-width="10" stroke="white" fill="#3fff63" fill-opacity="1" />
<circle cx="1100" cy="-480" r="20" fill="#3fff63" fill-opacity="1" stroke-width="0" />
<text x="1150" y="-470" font-size="30">Extra Large</text>
<path d="M 679.2852151174034 -444.8186759456578A 166.6666666666667 166.6666666666667 0 0 0 716.6666666666667 -550.0L 550.0 -550.0 Z" stroke-width="10" stroke="white" fill="#a8428f" fill-opacity="1" />
<circle cx="1100" cy="-560" r="20" fill="#a8428f" fill-opacity="1" stroke-width="0" />
<text x="1150" y="-550" font-size="30">Middle</text>
</svg>