<?xml version="1.0" encoding="UTF-8"?>
<svg xmlns="http://www.w3.org/2000/svg" xmlns:xlink="http://www.w3.org/1999/xlink"
     width="1575.0" height="1200.0" viewBox="0 -1200.0 1575.0 1200.0">
<defs>
</defs>
<rect x="0" y="-1200.0" width="1575.0" height="1200.0" fill="#ffffff" />
<path d="M175.0,-200.0 h1400" stroke-width="1" stroke="gray" fill="gray" fill-opacity="0.5" />
<path d="M175.0,-300.0 h1400" stroke-width="1" stroke="gray" fill="gray" fill-opacity="0.5" />
<path d="M175.0,-400.0 h1400" stroke-width="1" stroke="gray" fill="gray" fill-opacity="0.5" />
<path d="M175.0,-500.0 h1400" stroke-width="1" stroke="gray" fill="gray" fill-opacity="0.5" />
<path d="M175.0,-600.0 h1400" stroke-width="1" stroke="gray" fill="gray" fill-opacity="0.5" />
<path d="M175.0,-700.0 h1400" stroke-width="1" stroke="gray" fill="gray" fill-opacity="0.5" />
<path d="M175.0,-800.0 h1400" stroke-width="1" stroke="gray" fill="gray" fill-opacity="0.5" />
<path d="M175.0,-900.0 h1400" stroke-width="1" stroke="gray" fill="gray" fill-opacity="0.5" />
<path d="M175.0,-1000.0 h1400" stroke-width="1" stroke="gray" fill="gray" fill-opacity="0.5" />
<path d="M175.0,-1100.0 h1400" stroke-width="1" stroke="gray" fill="gray" fill-opacity="0.5" />
<circle cx="350.0" cy="-1010.3763987792472" r="8.75" fill="#3066BE" stroke-width="0" stroke="black" id="0" />
<circle cx="525.0" cy="-461.0376398779248" r="8.75" fill="#3066BE" stroke-width="0" stroke="black" id="1" />
<circle cx="700.0" cy="-406.1037639877925" r="8.75" fill="#3066BE" stroke-width="0" stroke="black" id="2" />
<circle cx="875.0" cy="-420.34587995930826" r="8.75" fill="#3066BE" stroke-width="0" stroke="black" id="3" />
<circle cx="1050.0" cy="-414.2421159715158" r="8.75" fill="#3066BE" stroke-width="0" stroke="black" id="4" />
<circle cx="1225.0" cy="-477.31434384537135" r="8.75" fill="#3066BE" stroke-width="0" stroke="black" id="5" />
<circle cx="1400.0" cy="-568.8708036622584" r="8.75" fill="#3066BE" stroke-width="0" stroke="black" id="6" />
<circle cx="350.0" cy="-479.3489318413022" r="8.75" fill="#D0D51E" stroke-width="0" stroke="black" id="7" />
<circle cx="525.0" cy="-416.27670396744657" r="8.75" fill="#D0D51E" stroke-width="0" stroke="black" id="8" />
<circle cx="700.0" cy="-475.2797558494405" r="8.75" fill="#D0D51E" stroke-width="0" stroke="black" id="9" />
<circle cx="875.0" cy="-595.3204476093591" r="8.75" fill="#D0D51E" stroke-width="0" stroke="black" id="10" />
<circle cx="1050.0" cy="-607.527975584944" r="8.75" fill="#D0D51E" stroke-width="0" stroke="black" id="11" />
<circle cx="1225.0" cy="-418.3112919633774" r="8.75" fill="#D0D51E" stroke-width="0" stroke="black" id="12" />
<circle cx="1400.0" cy="-406.1037639877925" r="8.75" fill="#D0D51E" stroke-width="0" stroke="black" id="13" />
<circle cx="350.0" cy="-426.44964394710075" r="8.75" fill="#D8876E" stroke-width="0" stroke="black" id="14" />
<circle cx="525.0" cy="-210.78331637843337" r="8.75" fill="#D8876E" stroke-width="0" stroke="black" id="15" />
<circle cx="700.0" cy="-568.8708036622584" r="8.75" fill="#D8876E" stroke-width="0" stroke="black" id="16" />
<circle cx="875.0" cy="-475.2797558494405" r="8.75" fill="#D8876E" stroke-width="0" stroke="black" id="17" />
<circle cx="1050.0" cy="-477.31434384537135" r="8.75" fill="#D8876E" stroke-width="0" stroke="black" id="18" />
<circle cx="1225.0" cy="-479.3489318413022" r="8.75" fill="#D8876E" stroke-width="0" stroke="black" id="19" />
<circle cx="1400.0" cy="-406.1037639877925" r="8.75" fill="#D8876E" stroke-width="0" stroke="black" id="20" />
<circle cx="350.0" cy="-479.3489318413022" r="8.75" fill="#D0D51E" stroke-width="0" stroke="black" id="21" />
<circle cx="525.0" cy="-416.27670396744657" r="8.75" fill="#D0D51E" stroke-width="0" stroke="black" id="22" />
<circle cx="700.0" cy="-475.2797558494405" r="8.75" fill="#D0D51E" stroke-width="0" stroke="black" id="23" />
<circle cx="875.0" cy="-595.3204476093591" r="8.75" fill="#D0D51E" stroke-width="0" stroke="black" id="24" />
<circle cx="1050.0" cy="-607.527975584944" r="8.75" fill="#D0D51E" stroke-width="0" stroke="black" id="25" />
<circle cx="1225.0" cy="-418.3112919633774" r="8.75" fill="#D0D51E" stroke-width="0" stroke="black" id="26" />
<circle cx="1400.0" cy="-406.1037639877925" r="8.75" fill="#D0D51E" stroke-width="0" stroke="black" id="27" />
<circle cx="350.0" cy="-426.44964394710075" r="8.75" fill="#D8876E" stroke-width="0" stroke="black" id="28" />
<circle cx="525.0" cy="-210.78331637843337" r="8.75" fill="#D8876E" stroke-width="0" stroke="black" id="29" />
<circle cx="700.0" cy="-568.8708036622584" r="8.75" fill="#D8876E" stroke-width="0" stroke="black" id="30" />
<circle cx="875.0" cy="-475.2797558494405" r="8.75" fill="#D8876E" stroke-width="0" stroke="black" id="31" />
<circle cx="1050.0" cy="-477.31434384537135" r="8.75" fill="#D8876E" stroke-width="0" stroke="black" id="32" />
<circle cx="1225.0" cy="-479.3489318413022" r="8.75" fill="#D8876E" stroke-width="0" stroke="black" id="33" />
<circle cx="1400.0" cy="-406.1037639877925" r="8.75" fill="#D8876E" stroke-width="0" stroke="black" id="34" />
<circle cx="350.0" cy="-479.3489318413022" r="8.75" fill="#D0D51E" stroke-width="0" stroke="black" id="35" />
<circle cx="525.0" cy="-416.27670396744657" r="8.75" fill="#D0D51E" stroke-width="0" stroke="black" id="36" />
<circle cx="700.0" cy="-475.2797558494405" r="8.75" fill="#D0D51E" stroke-width="0" stroke="black" id="37" />
<circle cx="875.0" cy="-595.3204476093591" r="8.75" fill="#D0D51E" stroke-width="0" stroke="black" id="38" />
<circle cx="1050.0" cy="-607.527975584944" r="8.75" fill="#D0D51E" stroke-width="0" stroke="black" id="39" />
<circle cx="1225.0" cy="-418.3112919633774" r="8.75" fill="#D0D51E" stroke-width="0" stroke="black" id="40" />
<circle cx="1400.0" cy="-406.1037639877925" r="8.75" fill="#D0D51E" stroke-width="0" stroke="black" id="41" />
<circle cx="350.0" cy="-200.0" r="7.0" fill="black" stroke-width="0" stroke="black" />
<text x="330.0" y="-146.84615384615384" font-size="13.333333333333334" id="42" transform="rotate(90,349.0,-153.84615384615384)">size</text>
<circle cx="525.0" cy="-200.0" r="7.0" fill="black" stroke-width="0" stroke="black" />
<text x="505.0" y="-146.84615384615384" font-size="13.333333333333334" id="43" transform="rotate(90,524.0,-153.84615384615384)">Huge</text>
<circle cx="700.0" cy="-200.0" r="7.0" fill="black" stroke-width="0" stroke="black" />
<text x="680.0" y="-146.84615384615384" font-size="13.333333333333334" id="44" transform="rotate(90,699.0,-153.84615384615384)">Tiny</text>
<circle cx="875.0" cy="-200.0" r="7.0" fill="black" stroke-width="0" stroke="black" />
<text x="855.0" y="-146.84615384615384" font-size="13.333333333333334" id="45" transform="rotate(90,874.0,-153.84615384615384)">Large</text>
<circle cx="1050.0" cy="-200.0" r="7.0" fill="black" stroke-width="0" stroke="black" />
<text x="1030.0" y="-146.84615384615384" font-size="13.333333333333334" id="46" transform="rotate(90,1049.0,-153.84615384615384)">Small</text>
<circle cx="1225.0" cy="-200.0" r="7.0" fill="black" stroke-width="0" stroke="black" />
<text x="1205.0" y="-146.84615384615384" font-size="13.333333333333334" id="47" transform="rotate(90,1224.0,-153.84615384615384)">Extra sm...</text>
<circle cx="1400.0" cy="-200.0" r="7.0" fill="black" stroke-width="0" stroke="black" />
<text x="1380.0" y="-146.84615384615384" font-size="13.333333333333334" id="48" transform="rotate(90,1399.0,-153.84615384615384)">Extra La...</text>
<circle cx="31.5" cy="-58.0" r="22.5" fill="gray" stroke-width="5" stroke="black" />
<text x="76.5" y="-50.0" font-size="22.5" id="49">X:size</text>
<circle cx="206.5" cy="-58.0" r="22.5" fill="#3066BE" stroke-width="0" stroke="black" />
<text x="251.5" y="-50.0" font-size="22.5" id="49">table</text>
<circle cx="381.5" cy="-58.0" r="22.5" fill="#D0D51E" stroke-width="0" stroke="black" />
<text x="426.5" y="-50.0" font-size="22.5" id="49">IT</text>
<circle cx="556.5" cy="-58.0" r="22.5" fill="#D8876E" stroke-width="0" stroke="black" />
<text x="601.5" y="-50.0" font-size="22.5" id="49">Kareem</text>
<circle cx="731.5" cy="-58.0" r="22.5" fill="#D0D51E" stroke-width="0" stroke="black" />
<text x="776.5" y="-50.0" font-size="22.5" id="49">IT</text>
<circle cx="906.5" cy="-58.0" r="22.5" fill="#D8876E" stroke-width="0" stroke="black" />
<text x="951.5" y="-50.0" font-size="22.5" id="49">Kareem</text>
<circle cx="1081.5" cy="-58.0" r="22.5" fill="#D0D51E" stroke-width="0" stroke="black" />
<text x="1126.5" y="-50.0" font-size="22.5" id="49">IT</text>
<text x="17.5" y="-200.0" font-size="21.875" id="49">-98.3</text>
<text x="17.5" y="-300.0" font-size="21.875" id="50">-49.15</text>
<text x="17.5" y="-400.0" font-size="21.875" id="51">0.0</text>
<text x="17.5" y="-500.0" font-size="21.875" id="52">49.15</text>
<text x="17.5" y="-600.0" font-size="21.875" id="53">98.3</text>
<text x="17.5" y="-700.0" font-size="21.875" id="54">147.45</text>
<text x="17.5" y="-800.0" font-size="21.875" id="55">196.6</text>
<text x="17.5" y="-900.0" font-size="21.875" id="56">245.75</text>
<text x="17.5" y="-1000.0" font-size="21.875" id="57">294.9</text>
<text x="17.5" y="-1100.0" font-size="21.875" id="58">344.0499...</text>
</svg>