<?xml version="1.0" encoding="UTF-8"?>
<svg xmlns="http://www.w3.org/2000/svg" xmlns:xlink="http://www.w3.org/1999/xlink"
     width="1500" height="1100" viewBox="0 -1100 1500 1100">
<defs>
</defs>
<rect x="0" y="-1100" width="1500" height="1100" fill="#ffffff" />
<path d="M 1050.0 -550.0A 500.0 500.0 0 0 0 984.6601372197913 -797.1245943083615L 550.0 -550.0 Z" stroke-width="10" stroke="white" fill="#a0bb11" fill-opacity="0.51" />
<circle cx="550.0" cy="-550.0" r="437.5" fill="white" fill-opacity="1" stroke="white" stroke-width="10" />
<text x="13" y="-545.0" font-size="50" transform="rotate(90,510.0,-47)">300: 8.22%</text>
<path d="M 987.5 -550.0A 437.5 437.5 0 0 0 763.7085413106928 -931.752418945651L 550.0 -550.0 Z" stroke-width="10" stroke="white" fill="#c82c0d" fill-opacity="0.51" />
<circle cx="550.0" cy="-550.0" r="375.0" fill="white" fill-opacity="1" stroke="white" stroke-width="10" />
<text x="68" y="-537.1875" font-size="50" transform="rotate(90,510.0,-102)">30: 16.8%</text>
<path d="M 925.0 -550.0A 375.0 375.0 0 0 0 880.793672441018 -726.6367636506752L 550.0 -550.0 Z" stroke-width="10" stroke="white" fill="#266dea" fill-opacity="0.51" />
<circle cx="550.0" cy="-550.0" r="312.5" fill="white" fill-opacity="1" stroke="white" stroke-width="10" />
<text x="123" y="-529.375" font-size="50" transform="rotate(90,510.0,-157)">3: 7.80%</text>
<path d="M 862.5 -550.0A 312.5 312.5 0 0 0 641.8282107306003 -848.7035816893003L 550.0 -550.0 Z" stroke-width="10" stroke="white" fill="#5af677" fill-opacity="0.51" />
<circle cx="550.0" cy="-550.0" r="250.0" fill="white" fill-opacity="1" stroke="white" stroke-width="10" />
<text x="178" y="-521.5625" font-size="50" transform="rotate(90,510.0,-212)">10: 20.2%</text>
<path d="M 800.0 -550.0A 250.0 250.0 0 0 0 604.2447020265795 -794.0440786047627L 550.0 -550.0 Z" stroke-width="10" stroke="white" fill="#fa02d9" fill-opacity="0.51" />
<circle cx="550.0" cy="-550.0" r="187.5" fill="white" fill-opacity="1" stroke="white" stroke-width="10" />
<text x="233" y="-513.75" font-size="50" transform="rotate(90,510.0,-267)">7: 21.5%</text>
<path d="M 737.5 -550.0A 187.5 187.5 0 0 0 619.1619858482514 -724.27813894326L 550.0 -550.0 Z" stroke-width="10" stroke="white" fill="#42ae77" fill-opacity="0.51" />
<circle cx="550.0" cy="-550.0" r="125.0" fill="white" fill-opacity="1" stroke="white" stroke-width="10" />
<text x="288" y="-505.9375" font-size="50" transform="rotate(90,510.0,-322)">38: 18.9%</text>
<path d="M 675.0 -550.0A 125.0 125.0 0 0 0 665.2457318410259 -598.4088968313301L 550.0 -550.0 Z" stroke-width="10" stroke="white" fill="#3b1e44" fill-opacity="0.51" />
<circle cx="550.0" cy="-550.0" r="62.5" fill="white" fill-opacity="1" stroke="white" stroke-width="10" />
<text x="343" y="-498.125" font-size="50" transform="rotate(90,510.0,-377)">83: 6.32%</text>
</svg>