<?xml version="1.0" encoding="UTF-8"?>
<svg xmlns="http://www.w3.org/2000/svg" xmlns:xlink="http://www.w3.org/1999/xlink"
     width="225.0" height="24.0" viewBox="0 -24.0 225.0 24.0">
<defs>
</defs>
<rect x="0" y="-24.0" width="225.0" height="24.0" fill="#ffffff" />
<path d="M25.0,-4.0 h200" stroke-width="0.3253333333333333" stroke="lightgray" fill="gray" fill-opacity="0" />
<path d="M25.0,-6.0 h200" stroke-width="0.3253333333333333" stroke="lightgray" fill="gray" fill-opacity="0" />
<path d="M25.0,-8.0 h200" stroke-width="0.3253333333333333" stroke="lightgray" fill="gray" fill-opacity="0" />
<path d="M25.0,-10.0 h200" stroke-width="0.3253333333333333" stroke="lightgray" fill="gray" fill-opacity="0" />
<path d="M25.0,-12.0 h200" stroke-width="0.3253333333333333" stroke="lightgray" fill="gray" fill-opacity="0" />
<path d="M25.0,-14.0 h200" stroke-width="0.3253333333333333" stroke="lightgray" fill="gray" fill-opacity="0" />
<path d="M25.0,-16.0 h200" stroke-width="0.3253333333333333" stroke="lightgray" fill="gray" fill-opacity="0" />
<path d="M25.0,-18.0 h200" stroke-width="0.3253333333333333" stroke="lightgray" fill="gray" fill-opacity="0" />
<path d="M25.0,-20.0 h200" stroke-width="0.3253333333333333" stroke="lightgray" fill="gray" fill-opacity="0" />
<path d="M25.0,-22.0 h200" stroke-width="0.3253333333333333" stroke="lightgray" fill="gray" fill-opacity="0" />
<circle cx="50.0" cy="-15.19672131147541" r="1.25" fill="#D0D51E" stroke-width="0" stroke="black" id="0" />
<circle cx="75.0" cy="-18.557377049180328" r="1.25" fill="#D0D51E" stroke-width="0" stroke="black" id="1" />
<circle cx="100.0" cy="-15.032786885245901" r="1.25" fill="#D0D51E" stroke-width="0" stroke="black" id="2" />
<circle cx="125.0" cy="-19.868852459016395" r="1.25" fill="#D0D51E" stroke-width="0" stroke="black" id="3" />
<circle cx="150.0" cy="-20.360655737704917" r="1.25" fill="#D0D51E" stroke-width="0" stroke="black" id="4" />
<circle cx="175.0" cy="-19.37704918032787" r="1.25" fill="#D0D51E" stroke-width="0" stroke="black" id="5" />
<circle cx="200.0" cy="-14.459016393442623" r="1.25" fill="#D0D51E" stroke-width="0" stroke="black" id="6" />
<circle cx="50.0" cy="-13.065573770491802" r="1.25" fill="#D8876E" stroke-width="0" stroke="black" id="7" />
<circle cx="75.0" cy="-4.377049180327869" r="1.25" fill="#D8876E" stroke-width="0" stroke="black" id="8" />
<circle cx="100.0" cy="-18.803278688524593" r="1.25" fill="#D8876E" stroke-width="0" stroke="black" id="9" />
<circle cx="125.0" cy="-15.032786885245901" r="1.25" fill="#D8876E" stroke-width="0" stroke="black" id="10" />
<circle cx="150.0" cy="-15.114754098360656" r="1.25" fill="#D8876E" stroke-width="0" stroke="black" id="11" />
<circle cx="175.0" cy="-15.19672131147541" r="1.25" fill="#D8876E" stroke-width="0" stroke="black" id="12" />
<circle cx="200.0" cy="-12.245901639344263" r="1.25" fill="#D8876E" stroke-width="0" stroke="black" id="13" />
<circle cx="50.0" cy="-15.19672131147541" r="1.25" fill="#D0D51E" stroke-width="0" stroke="black" id="14" />
<circle cx="75.0" cy="-18.557377049180328" r="1.25" fill="#D0D51E" stroke-width="0" stroke="black" id="15" />
<circle cx="100.0" cy="-15.032786885245901" r="1.25" fill="#D0D51E" stroke-width="0" stroke="black" id="16" />
<circle cx="125.0" cy="-19.868852459016395" r="1.25" fill="#D0D51E" stroke-width="0" stroke="black" id="17" />
<circle cx="150.0" cy="-20.360655737704917" r="1.25" fill="#D0D51E" stroke-width="0" stroke="black" id="18" />
<circle cx="175.0" cy="-19.37704918032787" r="1.25" fill="#D0D51E" stroke-width="0" stroke="black" id="19" />
<circle cx="200.0" cy="-14.459016393442623" r="1.25" fill="#D0D51E" stroke-width="0" stroke="black" id="20" />
<circle cx="50.0" cy="-13.065573770491802" r="1.25" fill="#D8876E" stroke-width="0" stroke="black" id="21" />
<circle cx="75.0" cy="-4.377049180327869" r="1.25" fill="#D8876E" stroke-width="0" stroke="black" id="22" />
<circle cx="100.0" cy="-18.803278688524593" r="1.25" fill="#D8876E" stroke-width="0" stroke="black" id="23" />
<circle cx="125.0" cy="-15.032786885245901" r="1.25" fill="#D8876E" stroke-width="0" stroke="black" id="24" />
<circle cx="150.0" cy="-15.114754098360656" r="1.25" fill="#D8876E" stroke-width="0" stroke="black" id="25" />
<circle cx="175.0" cy="-15.19672131147541" r="1.25" fill="#D8876E" stroke-width="0" stroke="black" id="26" />
<circle cx="200.0" cy="-12.245901639344263" r="1.25" fill="#D8876E" stroke-width="0" stroke="black" id="27" />
<circle cx="50.0" cy="-15.19672131147541" r="1.25" fill="#D0D51E" stroke-width="0" stroke="black" id="28" />
<circle cx="75.0" cy="-18.557377049180328" r="1.25" fill="#D0D51E" stroke-width="0" stroke="black" id="29" />
<circle cx="100.0" cy="-15.032786885245901" r="1.25" fill="#D0D51E" stroke-width="0" stroke="black" id="30" />
<circle cx="125.0" cy="-19.868852459016395" r="1.25" fill="#D0D51E" stroke-width="0" stroke="black" id="31" />
<circle cx="150.0" cy="-20.360655737704917" r="1.25" fill="#D0D51E" stroke-width="0" stroke="black" id="32" />
<circle cx="175.0" cy="-19.37704918032787" r="1.25" fill="#D0D51E" stroke-width="0" stroke="black" id="33" />
<circle cx="200.0" cy="-14.459016393442623" r="1.25" fill="#D0D51E" stroke-width="0" stroke="black" id="34" />
<circle cx="50.0" cy="-4.0" r="1.0" fill="black" stroke-width="0" stroke="black" />
<text x="49.6" y="-2.0769230769230766" font-size="0.26666666666666666" id="35" transform="rotate(90,49.0,-3.0769230769230766)">size</text>
<circle cx="75.0" cy="-4.0" r="1.0" fill="black" stroke-width="0" stroke="black" />
<text x="74.6" y="-2.0769230769230766" font-size="0.26666666666666666" id="36" transform="rotate(90,74.0,-3.0769230769230766)">Huge</text>
<circle cx="100.0" cy="-4.0" r="1.0" fill="black" stroke-width="0" stroke="black" />
<text x="99.6" y="-2.0769230769230766" font-size="0.26666666666666666" id="37" transform="rotate(90,99.0,-3.0769230769230766)">Tiny</text>
<circle cx="125.0" cy="-4.0" r="1.0" fill="black" stroke-width="0" stroke="black" />
<text x="124.6" y="-2.0769230769230766" font-size="0.26666666666666666" id="38" transform="rotate(90,124.0,-3.0769230769230766)">Large</text>
<circle cx="150.0" cy="-4.0" r="1.0" fill="black" stroke-width="0" stroke="black" />
<text x="149.6" y="-2.0769230769230766" font-size="0.26666666666666666" id="39" transform="rotate(90,149.0,-3.0769230769230766)">Small</text>
<circle cx="175.0" cy="-4.0" r="1.0" fill="black" stroke-width="0" stroke="black" />
<text x="174.6" y="-2.0769230769230766" font-size="0.26666666666666666" id="40" transform="rotate(90,174.0,-3.0769230769230766)">Extra sm...</text>
<circle cx="200.0" cy="-4.0" r="1.0" fill="black" stroke-width="0" stroke="black" />
<text x="199.6" y="-2.0769230769230766" font-size="0.26666666666666666" id="41" transform="rotate(90,199.0,-3.0769230769230766)">Extra La...</text>
<circle cx="4.5" cy="-9.0" r="1.6071428571428572" fill="black" stroke-width="0" stroke="black" />
<text x="10.928571428571429" y="-2.607142857142857" font-size="3.2142857142857144" id="42">X:size</text>
<circle cx="29.5" cy="-9.0" r="1.6071428571428572" fill="#D0D51E" stroke-width="0" stroke="black" />
<text x="35.92857142857143" y="-2.607142857142857" font-size="3.2142857142857144" id="42">IT</text>
<circle cx="54.5" cy="-9.0" r="1.6071428571428572" fill="#D8876E" stroke-width="0" stroke="black" />
<text x="60.92857142857143" y="-2.607142857142857" font-size="3.2142857142857144" id="42">Kareem</text>
<circle cx="79.5" cy="-9.0" r="1.6071428571428572" fill="#D0D51E" stroke-width="0" stroke="black" />
<text x="85.92857142857143" y="-2.607142857142857" font-size="3.2142857142857144" id="42">IT</text>
<circle cx="104.5" cy="-9.0" r="1.6071428571428572" fill="#D8876E" stroke-width="0" stroke="black" />
<text x="110.92857142857143" y="-2.607142857142857" font-size="3.2142857142857144" id="42">Kareem</text>
<circle cx="129.5" cy="-9.0" r="1.6071428571428572" fill="#D0D51E" stroke-width="0" stroke="black" />
<text x="135.92857142857142" y="-2.607142857142857" font-size="3.2142857142857144" id="42">IT</text>
<text x="2.5" y="-4.0" font-size="3.125" id="42">-97.6</text>
<text x="2.5" y="-6.0" font-size="3.125" id="43">-73.1999...</text>
<text x="2.5" y="-8.0" font-size="3.125" id="44">-48.7999...</text>
<text x="2.5" y="-10.0" font-size="3.125" id="45">-24.3999...</text>
<text x="2.5" y="-12.0" font-size="3.125" id="46">7.105427...</text>
<text x="2.5" y="-14.0" font-size="3.125" id="47">24.40000...</text>
<text x="2.5" y="-16.0" font-size="3.125" id="48">48.80000...</text>
<text x="2.5" y="-18.0" font-size="3.125" id="49">73.2</text>
<text x="2.5" y="-20.0" font-size="3.125" id="50">97.6</text>
<text x="2.5" y="-22.0" font-size="3.125" id="51">122.0</text>
</svg>