<?xml version="1.0" encoding="UTF-8"?>
<svg xmlns="http://www.w3.org/2000/svg" xmlns:xlink="http://www.w3.org/1999/xlink"
     width="562.5" height="600.0" viewBox="0 -600.0 562.5 600.0">
<defs>
</defs>
<rect x="0" y="-600.0" width="562.5" height="600.0" fill="#ffffff" />
<path d="M62.5,-100.0 h500" stroke-width="0.3253333333333333" stroke="lightgray" fill="gray" fill-opacity="0" />
<path d="M62.5,-150.0 h500" stroke-width="0.3253333333333333" stroke="lightgray" fill="gray" fill-opacity="0" />
<path d="M62.5,-200.0 h500" stroke-width="0.3253333333333333" stroke="lightgray" fill="gray" fill-opacity="0" />
<path d="M62.5,-250.0 h500" stroke-width="0.3253333333333333" stroke="lightgray" fill="gray" fill-opacity="0" />
<path d="M62.5,-300.0 h500" stroke-width="0.3253333333333333" stroke="lightgray" fill="gray" fill-opacity="0" />
<path d="M62.5,-350.0 h500" stroke-width="0.3253333333333333" stroke="lightgray" fill="gray" fill-opacity="0" />
<path d="M62.5,-400.0 h500" stroke-width="0.3253333333333333" stroke="lightgray" fill="gray" fill-opacity="0" />
<path d="M62.5,-450.0 h500" stroke-width="0.3253333333333333" stroke="lightgray" fill="gray" fill-opacity="0" />
<path d="M62.5,-500.0 h500" stroke-width="0.3253333333333333" stroke="lightgray" fill="gray" fill-opacity="0" />
<path d="M62.5,-550.0 h500" stroke-width="0.3253333333333333" stroke="lightgray" fill="gray" fill-opacity="0" />
<circle cx="125.0" cy="-379.91803278688525" r="3.125" fill="#D0D51E" stroke-width="0" stroke="black" id="0" />
<circle cx="187.5" cy="-463.93442622950823" r="3.125" fill="#D0D51E" stroke-width="0" stroke="black" id="1" />
<circle cx="250.0" cy="-375.81967213114757" r="3.125" fill="#D0D51E" stroke-width="0" stroke="black" id="2" />
<circle cx="312.5" cy="-496.72131147540983" r="3.125" fill="#D0D51E" stroke-width="0" stroke="black" id="3" />
<circle cx="375.0" cy="-509.016393442623" r="3.125" fill="#D0D51E" stroke-width="0" stroke="black" id="4" />
<circle cx="437.5" cy="-484.42622950819674" r="3.125" fill="#D0D51E" stroke-width="0" stroke="black" id="5" />
<circle cx="500.0" cy="-361.4754098360656" r="3.125" fill="#D0D51E" stroke-width="0" stroke="black" id="6" />
<circle cx="125.0" cy="-326.6393442622951" r="3.125" fill="#D8876E" stroke-width="0" stroke="black" id="7" />
<circle cx="187.5" cy="-109.42622950819671" r="3.125" fill="#D8876E" stroke-width="0" stroke="black" id="8" />
<circle cx="250.0" cy="-470.08196721311475" r="3.125" fill="#D8876E" stroke-width="0" stroke="black" id="9" />
<circle cx="312.5" cy="-375.81967213114757" r="3.125" fill="#D8876E" stroke-width="0" stroke="black" id="10" />
<circle cx="375.0" cy="-377.8688524590164" r="3.125" fill="#D8876E" stroke-width="0" stroke="black" id="11" />
<circle cx="437.5" cy="-379.91803278688525" r="3.125" fill="#D8876E" stroke-width="0" stroke="black" id="12" />
<circle cx="500.0" cy="-306.1475409836066" r="3.125" fill="#D8876E" stroke-width="0" stroke="black" id="13" />
<circle cx="125.0" cy="-379.91803278688525" r="3.125" fill="#D0D51E" stroke-width="0" stroke="black" id="14" />
<circle cx="187.5" cy="-463.93442622950823" r="3.125" fill="#D0D51E" stroke-width="0" stroke="black" id="15" />
<circle cx="250.0" cy="-375.81967213114757" r="3.125" fill="#D0D51E" stroke-width="0" stroke="black" id="16" />
<circle cx="312.5" cy="-496.72131147540983" r="3.125" fill="#D0D51E" stroke-width="0" stroke="black" id="17" />
<circle cx="375.0" cy="-509.016393442623" r="3.125" fill="#D0D51E" stroke-width="0" stroke="black" id="18" />
<circle cx="437.5" cy="-484.42622950819674" r="3.125" fill="#D0D51E" stroke-width="0" stroke="black" id="19" />
<circle cx="500.0" cy="-361.4754098360656" r="3.125" fill="#D0D51E" stroke-width="0" stroke="black" id="20" />
<circle cx="125.0" cy="-326.6393442622951" r="3.125" fill="#D8876E" stroke-width="0" stroke="black" id="21" />
<circle cx="187.5" cy="-109.42622950819671" r="3.125" fill="#D8876E" stroke-width="0" stroke="black" id="22" />
<circle cx="250.0" cy="-470.08196721311475" r="3.125" fill="#D8876E" stroke-width="0" stroke="black" id="23" />
<circle cx="312.5" cy="-375.81967213114757" r="3.125" fill="#D8876E" stroke-width="0" stroke="black" id="24" />
<circle cx="375.0" cy="-377.8688524590164" r="3.125" fill="#D8876E" stroke-width="0" stroke="black" id="25" />
<circle cx="437.5" cy="-379.91803278688525" r="3.125" fill="#D8876E" stroke-width="0" stroke="black" id="26" />
<circle cx="500.0" cy="-306.1475409836066" r="3.125" fill="#D8876E" stroke-width="0" stroke="black" id="27" />
<circle cx="125.0" cy="-379.91803278688525" r="3.125" fill="#D0D51E" stroke-width="0" stroke="black" id="28" />
<circle cx="187.5" cy="-463.93442622950823" r="3.125" fill="#D0D51E" stroke-width="0" stroke="black" id="29" />
<circle cx="250.0" cy="-375.81967213114757" r="3.125" fill="#D0D51E" stroke-width="0" stroke="black" id="30" />
<circle cx="312.5" cy="-496.72131147540983" r="3.125" fill="#D0D51E" stroke-width="0" stroke="black" id="31" />
<circle cx="375.0" cy="-509.016393442623" r="3.125" fill="#D0D51E" stroke-width="0" stroke="black" id="32" />
<circle cx="437.5" cy="-484.42622950819674" r="3.125" fill="#D0D51E" stroke-width="0" stroke="black" id="33" />
<circle cx="500.0" cy="-361.4754098360656" r="3.125" fill="#D0D51E" stroke-width="0" stroke="black" id="34" />
<circle cx="125.0" cy="-100.0" r="2.5" fill="black" stroke-width="0" stroke="black" />
<text x="115.0" y="-74.42307692307692" font-size="6.666666666666667" id="35" transform="rotate(90,124.0,-76.92307692307692)">size</text>
<circle cx="187.5" cy="-100.0" r="2.5" fill="black" stroke-width="0" stroke="black" />
<text x="177.5" y="-74.42307692307692" font-size="6.666666666666667" id="36" transform="rotate(90,186.5,-76.92307692307692)">Huge</text>
<circle cx="250.0" cy="-100.0" r="2.5" fill="black" stroke-width="0" stroke="black" />
<text x="240.0" y="-74.42307692307692" font-size="6.666666666666667" id="37" transform="rotate(90,249.0,-76.92307692307692)">Tiny</text>
<circle cx="312.5" cy="-100.0" r="2.5" fill="black" stroke-width="0" stroke="black" />
<text x="302.5" y="-74.42307692307692" font-size="6.666666666666667" id="38" transform="rotate(90,311.5,-76.92307692307692)">Large</text>
<circle cx="375.0" cy="-100.0" r="2.5" fill="black" stroke-width="0" stroke="black" />
<text x="365.0" y="-74.42307692307692" font-size="6.666666666666667" id="39" transform="rotate(90,374.0,-76.92307692307692)">Small</text>
<circle cx="437.5" cy="-100.0" r="2.5" fill="black" stroke-width="0" stroke="black" />
<text x="427.5" y="-74.42307692307692" font-size="6.666666666666667" id="40" transform="rotate(90,436.5,-76.92307692307692)">Extra sm...</text>
<circle cx="500.0" cy="-100.0" r="2.5" fill="black" stroke-width="0" stroke="black" />
<text x="490.0" y="-74.42307692307692" font-size="6.666666666666667" id="41" transform="rotate(90,499.0,-76.92307692307692)">Extra La...</text>
<circle cx="11.25" cy="-33.0" r="4.017857142857143" fill="black" stroke-width="0" stroke="black" />
<text x="27.321428571428573" y="-29.017857142857142" font-size="8.035714285714286" id="42">X:size</text>
<circle cx="73.75" cy="-33.0" r="4.017857142857143" fill="#D0D51E" stroke-width="0" stroke="black" />
<text x="89.82142857142857" y="-29.017857142857142" font-size="8.035714285714286" id="42">IT</text>
<circle cx="136.25" cy="-33.0" r="4.017857142857143" fill="#D8876E" stroke-width="0" stroke="black" />
<text x="152.32142857142858" y="-29.017857142857142" font-size="8.035714285714286" id="42">Kareem</text>
<circle cx="198.75" cy="-33.0" r="4.017857142857143" fill="#D0D51E" stroke-width="0" stroke="black" />
<text x="214.82142857142858" y="-29.017857142857142" font-size="8.035714285714286" id="42">IT</text>
<circle cx="261.25" cy="-33.0" r="4.017857142857143" fill="#D8876E" stroke-width="0" stroke="black" />
<text x="277.32142857142856" y="-29.017857142857142" font-size="8.035714285714286" id="42">Kareem</text>
<circle cx="323.75" cy="-33.0" r="4.017857142857143" fill="#D0D51E" stroke-width="0" stroke="black" />
<text x="339.82142857142856" y="-29.017857142857142" font-size="8.035714285714286" id="42">IT</text>
<text x="6.25" y="-100.0" font-size="7.8125" id="42">-97.6</text>
<text x="6.25" y="-150.0" font-size="7.8125" id="43">-73.1999...</text>
<text x="6.25" y="-200.0" font-size="7.8125" id="44">-48.7999...</text>
<text x="6.25" y="-250.0" font-size="7.8125" id="45">-24.3999...</text>
<text x="6.25" y="-300.0" font-size="7.8125" id="46">7.105427...</text>
<text x="6.25" y="-350.0" font-size="7.8125" id="47">24.40000...</text>
<text x="6.25" y="-400.0" font-size="7.8125" id="48">48.80000...</text>
<text x="6.25" y="-450.0" font-size="7.8125" id="49">73.2</text>
<text x="6.25" y="-500.0" font-size="7.8125" id="50">97.6</text>
<text x="6.25" y="-550.0" font-size="7.8125" id="51">122.0</text>
<path d="M62.5,-300.0 L125.0,-379.91803278688525 L187.5,-463.93442622950823 L250.0,-375.81967213114757 L312.5,-496.72131147540983 L375.0,-509.016393442623 L437.5,-484.42622950819674 L500.0,-361.4754098360656 V-300.0" stroke-width="1.25" stroke="#D0D51E" fill="#D0D51E" fill-opacity="0" id="52" />
<path d="M62.5,-300.0 L125.0,-326.6393442622951 L187.5,-109.42622950819671 L250.0,-470.08196721311475 L312.5,-375.81967213114757 L375.0,-377.8688524590164 L437.5,-379.91803278688525 L500.0,-306.1475409836066 V-300.0" stroke-width="1.25" stroke="#D8876E" fill="#D8876E" fill-opacity="0" id="53" />
<path d="M62.5,-300.0 L125.0,-379.91803278688525 L187.5,-463.93442622950823 L250.0,-375.81967213114757 L312.5,-496.72131147540983 L375.0,-509.016393442623 L437.5,-484.42622950819674 L500.0,-361.4754098360656 V-300.0" stroke-width="1.25" stroke="#D0D51E" fill="#D0D51E" fill-opacity="0" id="54" />
<path d="M62.5,-300.0 L125.0,-326.6393442622951 L187.5,-109.42622950819671 L250.0,-470.08196721311475 L312.5,-375.81967213114757 L375.0,-377.8688524590164 L437.5,-379.91803278688525 L500.0,-306.1475409836066 V-300.0" stroke-width="1.25" stroke="#D8876E" fill="#D8876E" fill-opacity="0" id="55" />
<path d="M62.5,-300.0 L125.0,-379.91803278688525 L187.5,-463.93442622950823 L250.0,-375.81967213114757 L312.5,-496.72131147540983 L375.0,-509.016393442623 L437.5,-484.42622950819674 L500.0,-361.4754098360656 V-300.0" stroke-width="1.25" stroke="#D0D51E" fill="#D0D51E" fill-opacity="0" id="56" />
</svg>