<?xml version="1.0" encoding="UTF-8"?>
<svg xmlns="http://www.w3.org/2000/svg" xmlns:xlink="http://www.w3.org/1999/xlink"
     width="561" height="614" viewBox="0 -614 561 614">
<defs>
</defs>
<rect x="0" y="-614" width="561" height="614" fill="#ffffff" />
<path d="M 401.625 -307.0A 191.24999999999997 191.24999999999997 0 0 0 395.9230640035398 -353.35168221907685L 210.375 -307.0 Z" stroke-width="3.8249999999999993" stroke="white" fill="#50cea4" fill-opacity="1" />
<circle cx="436.3333333333333" cy="-76.75" r="7.649999999999999" fill="#50cea4" fill-opacity="1" stroke-width="0" />
<text x="467.5" y="-75.215" font-size="15.299999999999997" style="font-size :15.299999999999997">0.0</text>
<path d="M 395.9230640035398 -353.35168221907685A 191.24999999999997 191.24999999999997 0 0 0 357.43678797115297 -429.2677104501742L 210.375 -307.0 Z" stroke-width="3.8249999999999993" stroke="white" fill="#267af7" fill-opacity="1" />
<circle cx="436.3333333333333" cy="-153.5" r="7.649999999999999" fill="#267af7" fill-opacity="1" stroke-width="0" />
<text x="467.5" y="-150.43" font-size="15.299999999999997" style="font-size :15.299999999999997">15.0</text>
<path d="M 357.43678797115297 -429.2677104501742A 191.24999999999997 191.24999999999997 0 0 0 323.41926659610937 -461.2645658916776L 210.375 -307.0 Z" stroke-width="3.8249999999999993" stroke="white" fill="#9c324" fill-opacity="1" />
<circle cx="436.3333333333333" cy="-230.25" r="7.649999999999999" fill="#9c324" fill-opacity="1" stroke-width="0" />
<text x="467.5" y="-225.645" font-size="15.299999999999997" style="font-size :15.299999999999997">0.0</text>
<path d="M 323.41926659610937 -461.2645658916776A 191.24999999999997 191.24999999999997 0 0 0 123.89712273218635 -477.58176703051515L 210.375 -307.0 Z" stroke-width="3.8249999999999993" stroke="white" fill="#eed5f2" fill-opacity="1" />
<circle cx="436.3333333333333" cy="-307.0" r="7.649999999999999" fill="#eed5f2" fill-opacity="1" stroke-width="0" />
<text x="467.5" y="-300.86" font-size="15.299999999999997" style="font-size :15.299999999999997">33.0</text>
<path d="M 123.89712273218635 -477.58176703051515A 191.24999999999997 191.24999999999997 0 0 0 91.13257539451719 -157.47472897798934L 210.375 -307.0 Z" stroke-width="3.8249999999999993" stroke="white" fill="#d5311f" fill-opacity="1" />
<circle cx="436.3333333333333" cy="-383.75" r="7.649999999999999" fill="#d5311f" fill-opacity="1" stroke-width="0" />
<text x="467.5" y="-376.075" font-size="15.299999999999997" style="font-size :15.299999999999997">2.0</text>
<path d="M 91.13257539451719 -157.47472897798934A 191.24999999999997 191.24999999999997 0 0 0 326.5425167863691 -155.07346991493344L 210.375 -307.0 Z" stroke-width="3.8249999999999993" stroke="white" fill="#b7de0" fill-opacity="1" />
<circle cx="436.3333333333333" cy="-460.5" r="7.649999999999999" fill="#b7de0" fill-opacity="1" stroke-width="0" />
<text x="467.5" y="-451.29" font-size="15.299999999999997" style="font-size :15.299999999999997">111.0</text>
<path d="M 326.5425167863691 -155.07346991493344A 191.24999999999997 191.24999999999997 0 0 0 401.625 -306.99999999999994L 210.375 -307.0 Z" stroke-width="3.8249999999999993" stroke="white" fill="#12bbc" fill-opacity="1" />
<circle cx="436.3333333333333" cy="-537.25" r="7.649999999999999" fill="#12bbc" fill-opacity="1" stroke-width="0" />
<text x="467.5" y="-526.505" font-size="15.299999999999997" style="font-size :15.299999999999997">22.0</text>
<path d="M 337.875 -307.0A 127.49999999999997 127.49999999999997 0 0 0 298.86945989063076 -398.7876929041445L 210.375 -307.0 Z" stroke-width="3.8249999999999993" stroke="white" fill="#50cea4" fill-opacity="1" />
<circle cx="436.3333333333333" cy="-76.75" r="7.649999999999999" fill="#50cea4" fill-opacity="1" stroke-width="0" />
<text x="467.5" y="-75.215" font-size="15.299999999999997" style="font-size :15.299999999999997">0.0</text>
<path d="M 298.86945989063076 -398.7876929041445A 127.49999999999997 127.49999999999997 0 0 0 189.51009600301725 -432.7811821426269L 210.375 -307.0 Z" stroke-width="3.8249999999999993" stroke="white" fill="#267af7" fill-opacity="1" />
<circle cx="436.3333333333333" cy="-153.5" r="7.649999999999999" fill="#267af7" fill-opacity="1" stroke-width="0" />
<text x="467.5" y="-150.43" font-size="15.299999999999997" style="font-size :15.299999999999997">15.0</text>
<path d="M 189.51009600301725 -432.7811821426269A 127.49999999999997 127.49999999999997 0 0 0 93.96118762163243 -359.0007142983078L 210.375 -307.0 Z" stroke-width="3.8249999999999993" stroke="white" fill="#9c324" fill-opacity="1" />
<circle cx="436.3333333333333" cy="-230.25" r="7.649999999999999" fill="#9c324" fill-opacity="1" stroke-width="0" />
<text x="467.5" y="-225.645" font-size="15.299999999999997" style="font-size :15.299999999999997">0.0</text>
<path d="M 93.96118762163243 -359.0007142983078A 127.49999999999997 127.49999999999997 0 0 0 84.5938178573731 -286.1350960030172L 210.375 -307.0 Z" stroke-width="3.8249999999999993" stroke="white" fill="#eed5f2" fill-opacity="1" />
<circle cx="436.3333333333333" cy="-307.0" r="7.649999999999999" fill="#eed5f2" fill-opacity="1" stroke-width="0" />
<text x="467.5" y="-300.86" font-size="15.299999999999997" style="font-size :15.299999999999997">33.0</text>
<path d="M 84.5938178573731 -286.1350960030172A 127.49999999999997 127.49999999999997 0 0 0 258.0893539971023 -188.76468199966982L 210.375 -307.0 Z" stroke-width="3.8249999999999993" stroke="white" fill="#d5311f" fill-opacity="1" />
<circle cx="436.3333333333333" cy="-383.75" r="7.649999999999999" fill="#d5311f" fill-opacity="1" stroke-width="0" />
<text x="467.5" y="-376.075" font-size="15.299999999999997" style="font-size :15.299999999999997">2.0</text>
<path d="M 258.0893539971023 -188.76468199966982A 127.49999999999997 127.49999999999997 0 0 0 337.875 -306.99999999999994L 210.375 -307.0 Z" stroke-width="3.8249999999999993" stroke="white" fill="#b7de0" fill-opacity="1" />
<circle cx="436.3333333333333" cy="-460.5" r="7.649999999999999" fill="#b7de0" fill-opacity="1" stroke-width="0" />
<text x="467.5" y="-451.29" font-size="15.299999999999997" style="font-size :15.299999999999997">111.0</text>
<path d="M 337.875 -306.99999999999994A 127.49999999999997 127.49999999999997 0 0 0 337.875 -306.99999999999994L 210.375 -307.0 Z" stroke-width="3.8249999999999993" stroke="white" fill="#12bbc" fill-opacity="1" />
<circle cx="436.3333333333333" cy="-537.25" r="7.649999999999999" fill="#12bbc" fill-opacity="1" stroke-width="0" />
<text x="467.5" y="-526.505" font-size="15.299999999999997" style="font-size :15.299999999999997">22.0</text>
</svg>