<?xml version="1.0" encoding="UTF-8" standalone="no"?>
<svg
   xmlns:svg="http://www.w3.org/2000/svg"
   xmlns="http://www.w3.org/2000/svg"
   xmlns:sodipodi="http://sodipodi.sourceforge.net/DTD/sodipodi-0.dtd"
   xmlns:inkscape="http://www.inkscape.org/namespaces/inkscape"
   sodipodi:docname="data-sources.svg"
   inkscape:version="1.1-dev (2e60fb975d, 2020-06-03)"
   id="svg6"
   version="1.1"
   viewBox="0 0 11.641666 11.666775"
   height="11.666775mm"
   width="11.641666mm">
  <defs
     id="defs2">
    <clipPath
       id="clip0">
      <rect
         y="0"
         x="0"
         width="21.698601"
         height="24.7656"
         fill="#ffffff"
         transform="translate(11.4521,9.66455)"
         id="rect866" />
    </clipPath>
  </defs>
  <sodipodi:namedview
     inkscape:window-maximized="1"
     inkscape:window-y="0"
     inkscape:window-x="0"
     inkscape:window-height="719"
     inkscape:window-width="1366"
     showgrid="false"
     inkscape:current-layer="layer1"
     inkscape:document-units="mm"
     inkscape:cy="21.143124"
     inkscape:cx="18.499823"
     inkscape:zoom="6.7343567"
     inkscape:pageshadow="2"
     inkscape:pageopacity="0.0"
     borderopacity="1.0"
     bordercolor="#666666"
     pagecolor="#ffffff"
     id="base" />
  <g
     transform="translate(-93.691706,-86.024341)"
     id="layer1"
     inkscape:groupmode="layer"
     inkscape:label="Layer 1">
    <g
       transform="matrix(0.26458333,0,0,0.26458333,93.691706,86.024341)"
       id="g864"
       clip-path="url(#clip0)"
       style="fill:none">
      <path
         id="path856"
         fill="#227bc0"
         d="m 22.3015,14.8784 c 5.9919,0 10.8493,-1.1672 10.8493,-2.6069 0,-1.4398 -4.8574,-2.60695 -10.8493,-2.60695 -5.9919,0 -10.8494,1.16715 -10.8494,2.60695 0,1.4397 4.8575,2.6069 10.8494,2.6069 z" />
      <path
         id="path858"
         fill="#227bc0"
         d="m 11.4521,20.6265 v 4.6794 c 0,0.8863 3.8292,2.6069 10.8494,2.6069 7.0201,0 10.8493,-1.7206 10.8493,-2.6069 v -4.6794 c -2.0997,1.3621 -6.4841,2.0725 -10.8493,2.0725 -4.3653,0 -8.7497,-0.7104 -10.8494,-2.0725 z m 11.4876,5.9828 h -1.2764 v -1.3034 h 1.2764 z" />
      <path
         id="path860"
         fill="#227bc0"
         d="m 11.4521,27.1436 v 4.6794 c 0,0.8863 3.8292,2.6069 10.8494,2.6069 7.0201,0 10.8493,-1.7206 10.8493,-2.6069 v -4.6794 c -2.0997,1.3621 -6.4841,2.0724 -10.8493,2.0724 -4.3653,0 -8.7497,-0.7103 -10.8494,-2.0724 z m 11.4876,5.3311 h -1.2764 v -1.3035 h 1.2764 z" />
      <path
         id="path862"
         fill="#227bc0"
         d="m 11.4521,14.1094 v 4.6794 c 0,0.8863 3.8292,2.6069 10.8494,2.6069 7.0201,0 10.8493,-1.7206 10.8493,-2.6069 v -4.6794 c -2.0997,1.3621 -6.4841,2.0725 -10.8493,2.0725 -4.3653,0 -8.7497,-0.7104 -10.8494,-2.0725 z m 11.4876,5.3311 H 21.6633 V 18.137 h 1.2764 z" />
    </g>
  </g>
</svg>
