<?xml version="1.0" encoding="UTF-8" standalone="no"?>
<svg
   xmlns:svg="http://www.w3.org/2000/svg"
   xmlns="http://www.w3.org/2000/svg"
   xmlns:sodipodi="http://sodipodi.sourceforge.net/DTD/sodipodi-0.dtd"
   xmlns:inkscape="http://www.inkscape.org/namespaces/inkscape"
   sodipodi:docname="edit.svg"
   inkscape:version="1.1-dev (2e60fb975d, 2020-06-03)"
   id="svg6"
   version="1.1"
   viewBox="0 0 3.5556894 3.5556896"
   height="3.5556896mm"
   width="3.5556896mm">
  <defs
     id="defs2">
    <clipPath
       id="clip0">
      <rect
         y="0"
         x="0"
         width="21.698601"
         height="24.7656"
         fill="#ffffff"
         transform="translate(11.4521,9.66455)"
         id="rect866" />
    </clipPath>
    <clipPath
       id="clip0-3">
      <rect
         y="0"
         x="0"
         width="21.698601"
         height="21.745399"
         fill="#ffffff"
         transform="translate(10.4521,10.8726)"
         id="rect961" />
    </clipPath>
    <clipPath
       id="clip0-6">
      <rect
         y="0"
         x="0"
         width="21.698601"
         height="21.745399"
         fill="#ffffff"
         transform="translate(11.4521,13.5737)"
         id="rect1002" />
    </clipPath>
    <clipPath
       id="clip0-7">
      <rect
         id="rect866-5"
         transform="translate(11.4521,9.66455)"
         fill="#ffffff"
         height="24.7656"
         width="21.698601"
         x="0"
         y="0" />
    </clipPath>
    <clipPath
       id="clip0-3-3">
      <rect
         id="rect961-5"
         transform="translate(10.4521,10.8726)"
         fill="#ffffff"
         height="21.745399"
         width="21.698601"
         x="0"
         y="0" />
    </clipPath>
    <clipPath
       id="clip0-9">
      <rect
         y="0"
         x="0"
         width="21.698601"
         height="24.7656"
         fill="#ffffff"
         transform="translate(11.4521,9.66455)"
         id="rect866-3" />
    </clipPath>
    <clipPath
       id="clip0-3-6">
      <rect
         y="0"
         x="0"
         width="21.698601"
         height="21.745399"
         fill="#ffffff"
         transform="translate(10.4521,10.8726)"
         id="rect961-0" />
    </clipPath>
    <clipPath
       id="clip0-6-6">
      <rect
         y="0"
         x="0"
         width="21.698601"
         height="21.745399"
         fill="#ffffff"
         transform="translate(11.4521,13.5737)"
         id="rect1002-2" />
    </clipPath>
  </defs>
  <sodipodi:namedview
     inkscape:window-maximized="1"
     inkscape:window-y="0"
     inkscape:window-x="0"
     inkscape:window-height="719"
     inkscape:window-width="1366"
     showgrid="false"
     inkscape:current-layer="g978"
     inkscape:document-units="mm"
     inkscape:cy="19.720854"
     inkscape:cx="22.889205"
     inkscape:zoom="9.7008314"
     inkscape:pageshadow="2"
     inkscape:pageopacity="0.0"
     borderopacity="1.0"
     bordercolor="#666666"
     pagecolor="#ffffff"
     id="base" />
  <g
     transform="translate(-100.60788,-92.112683)"
     id="layer1"
     inkscape:groupmode="layer"
     inkscape:label="Layer 1">
    <g
       transform="matrix(0.26458333,0,0,0.26458333,93.632176,86.073059)"
       id="g931"
       style="fill:none">
      <g
         transform="translate(-58.755123,-0.09175204)"
         id="g978"
         style="fill:none">
        <g
           style="fill:#000000"
           transform="matrix(0.02121995,0,0,0.02121995,86.576855,24.375544)"
           id="g951">
          <g
             style="fill:#000000"
             id="g6">
            <g
               style="fill:#000000"
               id="g4">
              <path
                 style="fill:#000000"
                 id="path2"
                 d="m 488,200 h -37.6 c -5.106,-21.625 -13.678,-42.282 -25.384,-61.168 l 26.6,-26.6 c 3.123,-3.124 3.123,-8.188 0,-11.312 L 395.08,44.352 c -3.124,-3.123 -8.188,-3.123 -11.312,0 l -26.608,26.6 C 338.276,59.255 317.622,50.693 296,45.6 V 8 c 0,-4.418 -3.582,-8 -8,-8 h -80 c -4.418,0 -8,3.582 -8,8 v 37.6 c -21.624,5.103 -42.278,13.675 -61.16,25.384 L 112.232,44.352 c -3.124,-3.123 -8.188,-3.123 -11.312,0 L 44.352,100.92 c -3.123,3.124 -3.123,8.188 0,11.312 l 26.6,26.6 C 59.257,157.72 50.696,178.377 45.6,200 H 8 c -4.418,0 -8,3.582 -8,8 v 80 c 0,4.418 3.582,8 8,8 h 37.6 c 5.106,21.625 13.678,42.282 25.384,61.168 l -26.632,26.6 c -3.123,3.124 -3.123,8.188 0,11.312 l 56.568,56.568 c 3.174,3.001 8.138,3.001 11.312,0 l 26.6,-26.6 C 157.72,436.743 178.377,445.304 200,450.4 V 488 c 0,4.418 3.582,8 8,8 h 80 c 4.418,0 8,-3.582 8,-8 v -37.6 c 21.625,-5.106 42.282,-13.678 61.168,-25.384 l 26.6,26.6 c 3.124,3.123 8.188,3.123 11.312,0 l 56.568,-56.568 c 3.123,-3.124 3.123,-8.188 0,-11.312 l -26.6,-26.6 C 436.74,338.258 445.301,317.612 450.4,296 H 488 c 4.418,0 8,-3.582 8,-8 v -80 c 0,-4.418 -3.582,-8 -8,-8 z m -8,80 h -36 c -3.802,-10e-4 -7.08,2.675 -7.84,6.4 -4.887,24.078 -14.395,46.981 -28,67.44 -2.105,3.172 -1.684,7.388 1.008,10.08 l 25.504,25.496 -45.256,45.256 -25.496,-25.504 c -2.692,-2.692 -6.908,-3.113 -10.08,-1.008 -20.459,13.605 -43.362,23.113 -67.44,28 -3.725,0.76 -6.401,4.038 -6.4,7.84 v 36 h -64 v -36 c 0.001,-3.802 -2.675,-7.08 -6.4,-7.84 -24.078,-4.887 -46.981,-14.395 -67.44,-28 -3.172,-2.105 -7.388,-1.684 -10.08,1.008 L 106.584,434.672 61.32,389.424 86.824,363.928 c 2.692,-2.692 3.113,-6.908 1.008,-10.08 -13.605,-20.459 -23.113,-43.362 -28,-67.44 C 59.075,282.682 55.802,280.004 52,280 H 16 v -64 h 36 c 3.802,0.001 7.08,-2.675 7.84,-6.4 4.887,-24.078 14.395,-46.981 28,-67.44 2.105,-3.172 1.683,-7.388 -1.008,-10.08 L 61.32,106.576 106.576,61.32 132.08,86.824 c 2.692,2.692 6.908,3.113 10.08,1.008 20.457,-13.602 43.357,-23.111 67.432,-28 3.726,-0.757 6.404,-4.03 6.408,-7.832 V 16 h 64 v 36 c -10e-4,3.802 2.675,7.08 6.4,7.84 24.075,4.889 46.975,14.398 67.432,28 3.172,2.105 7.388,1.684 10.08,-1.008 l 25.504,-25.504 45.256,45.256 -25.504,25.496 c -2.692,2.692 -3.113,6.908 -1.008,10.08 13.605,20.459 23.113,43.362 28,67.44 0.76,3.725 4.038,6.401 7.84,6.4 h 36 z" />
            </g>
          </g>
          <g
             style="fill:#000000"
             id="g12">
            <g
               style="fill:#000000"
               id="g10">
              <path
                 style="fill:#000000"
                 id="path8"
                 d="m 248,160 c -48.601,0 -88,39.399 -88,88 0,48.601 39.399,88 88,88 48.601,0 88,-39.399 88,-88 -0.057,-48.577 -39.423,-87.943 -88,-88 z m 0,160 c -39.764,0 -72,-32.236 -72,-72 0,-39.765 32.236,-72 72,-72 39.765,0 72,32.235 72,72 -0.044,39.746 -32.254,71.956 -72,72 z" />
            </g>
          </g>
          <g
             style="fill:#000000"
             id="g14" />
          <g
             style="fill:#000000"
             id="g16" />
          <g
             style="fill:#000000"
             id="g18" />
          <g
             style="fill:#000000"
             id="g20" />
          <g
             style="fill:#000000"
             id="g22" />
          <g
             style="fill:#000000"
             id="g24" />
          <g
             style="fill:#000000"
             id="g26" />
          <g
             style="fill:#000000"
             id="g28" />
          <g
             style="fill:#000000"
             id="g30" />
          <g
             style="fill:#000000"
             id="g32" />
          <g
             style="fill:#000000"
             id="g34" />
          <g
             style="fill:#000000"
             id="g36" />
          <g
             style="fill:#000000"
             id="g38" />
          <g
             style="fill:#000000"
             id="g40" />
          <g
             style="fill:#000000"
             id="g42" />
        </g>
      </g>
    </g>
  </g>
</svg>
