<?xml version="1.0" encoding="UTF-8" standalone="no"?>
<svg
   xmlns:svg="http://www.w3.org/2000/svg"
   xmlns="http://www.w3.org/2000/svg"
   xmlns:sodipodi="http://sodipodi.sourceforge.net/DTD/sodipodi-0.dtd"
   xmlns:inkscape="http://www.inkscape.org/namespaces/inkscape"
   width="11.641666mm"
   height="11.666775mm"
   viewBox="0 0 11.641666 11.666775"
   version="1.1"
   id="svg6"
   inkscape:version="1.1-dev (2e60fb975d, 2020-06-03)"
   sodipodi:docname="filters-white.svg">
  <defs
     id="defs2">
    <clipPath
       id="clip0">
      <rect
         id="rect866"
         transform="translate(11.4521,9.66455)"
         fill="#ffffff"
         height="24.7656"
         width="21.698601"
         x="0"
         y="0" />
    </clipPath>
    <clipPath
       id="clip0-3">
      <rect
         id="rect961"
         transform="translate(10.4521,10.8726)"
         fill="#ffffff"
         height="21.745399"
         width="21.698601"
         x="0"
         y="0" />
    </clipPath>
    <clipPath
       id="clip0-6">
      <rect
         id="rect1002"
         transform="translate(11.4521,13.5737)"
         fill="#ffffff"
         height="21.745399"
         width="21.698601"
         x="0"
         y="0" />
    </clipPath>
  </defs>
  <sodipodi:namedview
     id="base"
     pagecolor="#ffffff"
     bordercolor="#666666"
     borderopacity="1.0"
     inkscape:pageopacity="0.0"
     inkscape:pageshadow="2"
     inkscape:zoom="4.4417632"
     inkscape:cx="-15.877705"
     inkscape:cy="11.763899"
     inkscape:document-units="mm"
     inkscape:current-layer="g1016"
     showgrid="false"
     inkscape:window-width="1366"
     inkscape:window-height="719"
     inkscape:window-x="0"
     inkscape:window-y="0"
     inkscape:window-maximized="1" />
  <g
     inkscape:label="Layer 1"
     inkscape:groupmode="layer"
     id="layer1"
     transform="translate(-96.56489,-88.057141)">
    <g
       style="fill:none"
       id="g931"
       transform="matrix(0.26458333,0,0,0.26458333,93.632176,86.073059)">
      <g
         style="fill:none"
         id="g978"
         transform="translate(-58.755123,-0.09175204)">
        <g
           style="fill:none"
           id="g1016"
           transform="translate(69.839397,7.3059751)">
          <g
             style="fill:#ffffff"
             id="g1000"
             clip-path="url(#clip0-6)">
            <path
               style="fill:#ffffff"
               id="path998"
               fill="#41c1c3"
               d="M 32.3091,13.5737 H 12.4289 c -0.2979,0 -0.4875,0.3257 -0.2979,0.5972 l 7.2858,10.233 c 0.325,0.4343 0.5146,1.0043 0.5146,1.5743 v 8.9301 c 0.0271,0.2986 0.2708,0.4886 0.5146,0.38 L 24.59,33.714 c 0.1354,-0.0271 0.2166,-0.19 0.2166,-0.3257 v -7.4101 c 0,-0.57 0.1896,-1.1129 0.5147,-1.5743 l 7.2858,-10.233 c 0.1896,-0.2715 0,-0.5972 -0.298,-0.5972 z" />
          </g>
        </g>
      </g>
    </g>
  </g>
</svg>
