<?xml version="1.0" encoding="UTF-8" standalone="no"?>
<svg
   xmlns:svg="http://www.w3.org/2000/svg"
   xmlns="http://www.w3.org/2000/svg"
   xmlns:sodipodi="http://sodipodi.sourceforge.net/DTD/sodipodi-0.dtd"
   xmlns:inkscape="http://www.inkscape.org/namespaces/inkscape"
   sodipodi:docname="filters.svg"
   inkscape:version="1.1-dev (2e60fb975d, 2020-06-03)"
   id="svg6"
   version="1.1"
   viewBox="0 0 11.641666 11.666775"
   height="11.666775mm"
   width="11.641666mm">
  <defs
     id="defs2">
    <clipPath
       id="clip0">
      <rect
         y="0"
         x="0"
         width="21.698601"
         height="24.7656"
         fill="#ffffff"
         transform="translate(11.4521,9.66455)"
         id="rect866" />
    </clipPath>
    <clipPath
       id="clip0-3">
      <rect
         y="0"
         x="0"
         width="21.698601"
         height="21.745399"
         fill="#ffffff"
         transform="translate(10.4521,10.8726)"
         id="rect961" />
    </clipPath>
    <clipPath
       id="clip0-6">
      <rect
         y="0"
         x="0"
         width="21.698601"
         height="21.745399"
         fill="#ffffff"
         transform="translate(11.4521,13.5737)"
         id="rect1002" />
    </clipPath>
  </defs>
  <sodipodi:namedview
     inkscape:window-maximized="1"
     inkscape:window-y="0"
     inkscape:window-x="0"
     inkscape:window-height="719"
     inkscape:window-width="1366"
     showgrid="false"
     inkscape:current-layer="g1016"
     inkscape:document-units="mm"
     inkscape:cy="11.763899"
     inkscape:cx="-15.877705"
     inkscape:zoom="4.4417632"
     inkscape:pageshadow="2"
     inkscape:pageopacity="0.0"
     borderopacity="1.0"
     bordercolor="#666666"
     pagecolor="#ffffff"
     id="base" />
  <g
     transform="translate(-96.56489,-88.057141)"
     id="layer1"
     inkscape:groupmode="layer"
     inkscape:label="Layer 1">
    <g
       transform="matrix(0.26458333,0,0,0.26458333,93.632176,86.073059)"
       id="g931"
       style="fill:none">
      <g
         transform="translate(-58.755123,-0.09175204)"
         id="g978"
         style="fill:none">
        <g
           transform="translate(69.839397,7.3059751)"
           id="g1016"
           style="fill:none">
          <g
             clip-path="url(#clip0-6)"
             id="g1000">
            <path
               d="M 32.3091,13.5737 H 12.4289 c -0.2979,0 -0.4875,0.3257 -0.2979,0.5972 l 7.2858,10.233 c 0.325,0.4343 0.5146,1.0043 0.5146,1.5743 v 8.9301 c 0.0271,0.2986 0.2708,0.4886 0.5146,0.38 L 24.59,33.714 c 0.1354,-0.0271 0.2166,-0.19 0.2166,-0.3257 v -7.4101 c 0,-0.57 0.1896,-1.1129 0.5147,-1.5743 l 7.2858,-10.233 c 0.1896,-0.2715 0,-0.5972 -0.298,-0.5972 z"
               fill="#41c1c3"
               id="path998" />
          </g>
        </g>
      </g>
    </g>
  </g>
</svg>
