<?xml version="1.0" encoding="UTF-8" standalone="no"?>
<svg
   xmlns:svg="http://www.w3.org/2000/svg"
   xmlns="http://www.w3.org/2000/svg"
   xmlns:sodipodi="http://sodipodi.sourceforge.net/DTD/sodipodi-0.dtd"
   xmlns:inkscape="http://www.inkscape.org/namespaces/inkscape"
   sodipodi:docname="visualizers-black.svg"
   inkscape:version="1.1-dev (2e60fb975d, 2020-06-03)"
   id="svg6"
   version="1.1"
   viewBox="0 0 11.641666 11.666775"
   height="11.666775mm"
   width="11.641666mm">
  <defs
     id="defs2">
    <clipPath
       id="clip0">
      <rect
         y="0"
         x="0"
         width="21.698601"
         height="24.7656"
         fill="#ffffff"
         transform="translate(11.4521,9.66455)"
         id="rect866" />
    </clipPath>
  </defs>
  <sodipodi:namedview
     inkscape:window-maximized="1"
     inkscape:window-y="0"
     inkscape:window-x="0"
     inkscape:window-height="719"
     inkscape:window-width="1366"
     showgrid="false"
     inkscape:current-layer="g931"
     inkscape:document-units="mm"
     inkscape:cy="0.87077514"
     inkscape:cx="-52.634805"
     inkscape:zoom="1.7702173"
     inkscape:pageshadow="2"
     inkscape:pageopacity="0.0"
     borderopacity="1.0"
     bordercolor="#666666"
     pagecolor="#ffffff"
     id="base" />
  <g
     transform="translate(-93.632176,-86.098122)"
     id="layer1"
     inkscape:groupmode="layer"
     inkscape:label="Layer 1">
    <g
       transform="matrix(0.26458333,0,0,0.26458333,93.632176,86.073059)"
       id="g931"
       style="fill:none">
      <path
         d="m 31.2129,10.9674 c -0.0269,-8e-4 -0.0546,0.0039 -0.0821,0.0149 l -2.4874,1 c -0.1448,0.0582 -0.1727,0.2506 -0.0504,0.3473 l 0.5919,0.469 -3.9604,4.7732 -5.4907,-2.8264 c -0.3402,-0.1752 -0.7582,-0.1192 -1.04,0.1392 l -6.1019,5.592 c -0.207,0.1896 -0.2206,0.5108 -0.0304,0.7172 0.1003,0.1089 0.2374,0.1642 0.375,0.1642 0.1229,0 0.2465,-0.0443 0.3442,-0.1339 l 6.0496,-5.5439 5.5005,2.8313 c 0.3798,0.1955 0.8533,0.0989 1.1259,-0.2296 l 4.0257,-4.8521 0.6855,0.543 c 0.1222,0.0968 0.3037,0.0259 0.3277,-0.1279 l 0.4126,-2.6431 c 0.0196,-0.1264 -0.0791,-0.2312 -0.1953,-0.2344 z m -1.6801,6.1768 c -0.3787,0 -0.6867,0.3072 -0.6867,0.6851 v 14.5548 c 0,0.3778 0.308,0.6851 0.6867,0.6851 h 2.9312 c 0.3787,0 0.6868,-0.3073 0.6868,-0.6851 V 17.8293 c 0,-0.3779 -0.3081,-0.6851 -0.6868,-0.6851 z m -11.596,1.8046 c -0.3787,0 -0.6867,0.3073 -0.6867,0.685 v 12.7503 c 0,0.3778 0.308,0.6851 0.6867,0.6851 h 2.9313 c 0.3786,0 0.6867,-0.3073 0.6867,-0.6851 V 19.6338 c 0,-0.3777 -0.3081,-0.685 -0.6867,-0.685 z m 5.7981,1.5942 c -0.3787,0 -0.6868,0.3073 -0.6868,0.6851 v 11.156 c 0,0.3778 0.3081,0.6851 0.6868,0.6851 h 2.9312 c 0.3787,0 0.6867,-0.3073 0.6867,-0.6851 v -11.156 c 0,-0.3778 -0.308,-0.6851 -0.6867,-0.6851 z m -11.596,2.9211 c -0.3787,0 -0.6868,0.3072 -0.6868,0.685 v 8.235 c 0,0.3778 0.3081,0.6851 0.6868,0.6851 h 2.9312 c 0.3787,0 0.6867,-0.3073 0.6867,-0.6851 v -8.235 c 0,-0.3778 -0.308,-0.685 -0.6867,-0.685 z"
         fill="#ed1978"
         id="path921"
         style="fill:#333333;fill-opacity:1" />
    </g>
  </g>
</svg>
