<?xml version="1.0" encoding="UTF-8"?>
<svg xmlns="http://www.w3.org/2000/svg" xmlns:xlink="http://www.w3.org/1999/xlink"
     width="2000" height="1000.0" viewBox="0 -1000.0 2000 1000.0">
<defs>
</defs>
<rect x="0" y="-1000.0" width="2000" height="1000.0" fill="#ffffff" />
<rect x="0" y="-1000.0" width="2000" height="1000.0" fill="#ffffff" />
<path d="M200,-200.0 h1800" stroke-width="1" stroke="gray" fill="gray" fill-opacity="0.5" />
<path d="M200,-314.2857142857143 h1800" stroke-width="1" stroke="gray" fill="gray" fill-opacity="0.5" />
<path d="M200,-428.57142857142856 h1800" stroke-width="1" stroke="gray" fill="gray" fill-opacity="0.5" />
<path d="M200,-542.8571428571429 h1800" stroke-width="1" stroke="gray" fill="gray" fill-opacity="0.5" />
<path d="M200,-657.1428571428571 h1800" stroke-width="1" stroke="gray" fill="gray" fill-opacity="0.5" />
<path d="M200,-771.4285714285714 h1800" stroke-width="1" stroke="gray" fill="gray" fill-opacity="0.5" />
<path d="M200,-885.7142857142857 h1800" stroke-width="1" stroke="gray" fill="gray" fill-opacity="0.5" />
<path d="M200,-1000.0000000000001 h1800" stroke-width="1" stroke="gray" fill="gray" fill-opacity="0.5" />
<circle cx="350" cy="-202.26308345120225" r="5" fill="#26C485" stroke-width="0" stroke="black" id="0" />
<circle cx="500" cy="-881.1881188118813" r="5" fill="#26C485" stroke-width="0" stroke="black" id="1" />
<circle cx="650" cy="-428.57142857142856" r="5" fill="#26C485" stroke-width="0" stroke="black" id="2" />
<circle cx="800" cy="-315.41725601131543" r="5" fill="#26C485" stroke-width="0" stroke="black" id="3" />
<circle cx="950" cy="-473.8330975954739" r="5" fill="#26C485" stroke-width="0" stroke="black" id="4" />
<circle cx="1100" cy="-247.5247524752475" r="5" fill="#26C485" stroke-width="0" stroke="black" id="5" />
<circle cx="1250" cy="-247.5247524752475" r="5" fill="#26C485" stroke-width="0" stroke="black" id="6" />
<circle cx="1400" cy="-247.5247524752475" r="5" fill="#26C485" stroke-width="0" stroke="black" id="7" />
<circle cx="1550" cy="-247.5247524752475" r="5" fill="#26C485" stroke-width="0" stroke="black" id="8" />
<circle cx="1700" cy="-224.89391796322488" r="5" fill="#26C485" stroke-width="0" stroke="black" id="9" />
<circle cx="1850" cy="-405.94059405940595" r="5" fill="#26C485" stroke-width="0" stroke="black" id="10" />
<circle cx="350" cy="-417.25601131541725" r="5" fill="#3066BE" stroke-width="0" stroke="black" id="11" />
<circle cx="500" cy="-360.6789250353607" r="5" fill="#3066BE" stroke-width="0" stroke="black" id="12" />
<circle cx="650" cy="-473.8330975954739" r="5" fill="#3066BE" stroke-width="0" stroke="black" id="13" />
<circle cx="800" cy="-348.1188118811881" r="5" fill="#3066BE" stroke-width="0" stroke="black" id="14" />
<circle cx="950" cy="-405.94059405940595" r="5" fill="#3066BE" stroke-width="0" stroke="black" id="15" />
<circle cx="1100" cy="-405.94059405940595" r="5" fill="#3066BE" stroke-width="0" stroke="black" id="16" />
<circle cx="1250" cy="-405.94059405940595" r="5" fill="#3066BE" stroke-width="0" stroke="black" id="17" />
<circle cx="1400" cy="-405.94059405940595" r="5" fill="#3066BE" stroke-width="0" stroke="black" id="18" />
<circle cx="1550" cy="-507.7793493635078" r="5" fill="#3066BE" stroke-width="0" stroke="black" id="19" />
<circle cx="1700" cy="-360.6789250353607" r="5" fill="#3066BE" stroke-width="0" stroke="black" id="20" />
<circle cx="1850" cy="-383.30975954738335" r="5" fill="#3066BE" stroke-width="0" stroke="black" id="21" />
<circle cx="350" cy="-200" r="8" fill="black" stroke-width="0" stroke="black" />
<text x="284.0" y="-153.84615384615384" font-size="20.0" id="22">-3000026...</text>
<circle cx="500" cy="-200" r="8" fill="black" stroke-width="0" stroke="black" />
<text x="488.0" y="-153.84615384615384" font-size="20.0" id="23">80</text>
<circle cx="650" cy="-200" r="8" fill="black" stroke-width="0" stroke="black" />
<text x="638.0" y="-153.84615384615384" font-size="20.0" id="24">15</text>
<circle cx="800" cy="-200" r="8" fill="black" stroke-width="0" stroke="black" />
<text x="782.0" y="-153.84615384615384" font-size="20.0" id="25">-65</text>
<circle cx="950" cy="-200" r="8" fill="black" stroke-width="0" stroke="black" />
<text x="938.0" y="-153.84615384615384" font-size="20.0" id="26">15</text>
<circle cx="1100" cy="-200" r="8" fill="black" stroke-width="0" stroke="black" />
<text x="1094.0" y="-153.84615384615384" font-size="20.0" id="27">5</text>
<circle cx="1250" cy="-200" r="8" fill="black" stroke-width="0" stroke="black" />
<text x="1244.0" y="-153.84615384615384" font-size="20.0" id="28">5</text>
<circle cx="1400" cy="-200" r="8" fill="black" stroke-width="0" stroke="black" />
<text x="1394.0" y="-153.84615384615384" font-size="20.0" id="29">5</text>
<circle cx="1550" cy="-200" r="8" fill="black" stroke-width="0" stroke="black" />
<text x="1544.0" y="-153.84615384615384" font-size="20.0" id="30">5</text>
<circle cx="1700" cy="-200" r="8" fill="black" stroke-width="0" stroke="black" />
<text x="1694.0" y="-153.84615384615384" font-size="20.0" id="31">8</text>
<circle cx="1850" cy="-200" r="8" fill="black" stroke-width="0" stroke="black" />
<text x="1838.0" y="-153.84615384615384" font-size="20.0" id="32">99</text>
<circle cx="200" cy="-200.0" r="8" fill="lightgray" stroke-width="5" stroke="gray" />
<text x="57.142857142857146" y="-200.0" font-size="20" id="33">-10.1</text>
<circle cx="200" cy="-314.2857142857143" r="8" fill="lightgray" stroke-width="5" stroke="gray" />
<text x="57.142857142857146" y="-314.2857142857143" font-size="20" id="34">-5.05</text>
<circle cx="200" cy="-428.57142857142856" r="8" fill="lightgray" stroke-width="5" stroke="gray" />
<text x="57.142857142857146" y="-428.57142857142856" font-size="20" id="35">0.0</text>
<circle cx="200" cy="-542.8571428571429" r="8" fill="lightgray" stroke-width="5" stroke="gray" />
<text x="57.142857142857146" y="-542.8571428571429" font-size="20" id="36">5.05</text>
<circle cx="200" cy="-657.1428571428571" r="8" fill="lightgray" stroke-width="5" stroke="gray" />
<text x="57.142857142857146" y="-657.1428571428571" font-size="20" id="37">10.1</text>
<circle cx="200" cy="-771.4285714285714" r="8" fill="lightgray" stroke-width="5" stroke="gray" />
<text x="57.142857142857146" y="-771.4285714285714" font-size="20" id="38">15.14999...</text>
<circle cx="200" cy="-885.7142857142857" r="8" fill="lightgray" stroke-width="5" stroke="gray" />
<text x="57.142857142857146" y="-885.7142857142857" font-size="20" id="39">20.2</text>
<circle cx="200" cy="-1000.0000000000001" r="8" fill="lightgray" stroke-width="5" stroke="gray" />
<text x="57.142857142857146" y="-1000.0000000000001" font-size="20" id="40">25.25</text>
</svg>