<?xml version="1.0" encoding="utf-8"?>
<!-- Generator: Adobe Illustrator 23.0.1, SVG Export Plug-In . SVG Version: 6.00 Build 0)  -->
<svg version="1.1" id="Layer_1" xmlns="http://www.w3.org/2000/svg" xmlns:xlink="http://www.w3.org/1999/xlink" x="0px" y="0px"
	 viewBox="0 0 1300 1100" style="enable-background:new 0 0 1300 1100;" xml:space="preserve">
<style type="text/css">
	.st0{stroke:#FFFFFF;stroke-miterlimit:10;}
	.st1{fill:#FFFFFF;}
</style>
<rect class="st0" width="1028.9" height="1100"/>
<path id="0" class="st1" d="M818.9,944.5c0,0,97.5-24.7,61.2-118.5c0,0,70.2-28.6,37.5-110.8c0,0,88.6-45.8,21.8-132.1
	c0,0,79.4-117.9-58.8-153.2H634.4c0,0,104.3-246.2-82.5-296.6c0,0-45.8-2.1-73.5,29.9v129.2L369.1,526l-9.1,4.7L359.2,922l-13.2-0.3
	V527.1c0,0,6.9-24.4-14.7-24.4c-21.6,0-182.8,0.6-182.8,0.6s-56.5,0.9-79.8,66.7l-3.5,333.6c0,0,8.3,70.9,83.2,79.3h136.8
	c0,0,62.7-10.6,68.4-59.2h9.8c0,0,52.8,22.1,90.6,22.2h352c0,0,10-0.8,12.2-1.4L818.9,944.5l0,155.5H0V0h1300v1100H818.8
	L818.9,944.5L818.9,944.5z"/>
</svg>
