<?xml version="1.0" encoding="UTF-8"?>
<svg xmlns="http://www.w3.org/2000/svg" xmlns:xlink="http://www.w3.org/1999/xlink"
     width="1500" height="1100" viewBox="0 -1100 1500 1100">
<defs>
</defs>
<rect x="0" y="-1100" width="1500" height="1100" fill="#ffffff" />
<path d="M 1050.0 -550.0A 500.0 500.0 0 0 0 1020.817198829563 -718.3186421234551L 550.0 -550.0 Z" stroke-width="10" stroke="white" fill="#13b8f3" fill-opacity="0.5" />
<circle cx="1100" cy="-80" r="20" fill="#13b8f3" fill-opacity="0.5" stroke-width="0" />
<text x="1150" y="-70" font-size="30">10000000: 5.46%</text>
<path d="M 1020.817198829563 -718.3186421234551A 500.0 500.0 0 0 0 1020.817198829563 -718.3186421234551L 550.0 -550.0 Z" stroke-width="10" stroke="white" fill="#b3a9f1" fill-opacity="0.5" />
<circle cx="1100" cy="-160" r="20" fill="#b3a9f1" fill-opacity="0.5" stroke-width="0" />
<text x="1150" y="-150" font-size="30">15: 0.0%</text>
<path d="M 1020.817198829563 -718.3186421234551A 500.0 500.0 0 0 0 936.675338854865 -866.9892463814433L 550.0 -550.0 Z" stroke-width="10" stroke="white" fill="#9e9503" fill-opacity="0.5" />
<circle cx="1100" cy="-240" r="20" fill="#9e9503" fill-opacity="0.5" stroke-width="0" />
<text x="1150" y="-230" font-size="30">10: 5.46%</text>
<path d="M 936.675338854865 -866.9892463814433A 500.0 500.0 0 0 0 936.675338854865 -866.9892463814433L 550.0 -550.0 Z" stroke-width="10" stroke="white" fill="#b2bb2d" fill-opacity="0.5" />
<circle cx="1100" cy="-320" r="20" fill="#b2bb2d" fill-opacity="0.5" stroke-width="0" />
<text x="1150" y="-310" font-size="30">33: 0.0%</text>
<path d="M 936.675338854865 -866.9892463814433A 500.0 500.0 0 1 0 243.07192908869428 -155.29104483599002L 550.0 -550.0 Z" stroke-width="10" stroke="white" fill="#5610ab" fill-opacity="0.5" />
<circle cx="1100" cy="-400" r="20" fill="#5610ab" fill-opacity="0.5" stroke-width="0" />
<text x="1150" y="-390" font-size="30">2: 53.5%</text>
<path d="M 243.07192908869428 -155.29104483599002A 500.0 500.0 0 0 0 1050.0 -549.9999999999999L 550.0 -550.0 Z" stroke-width="10" stroke="white" fill="#37102a" fill-opacity="0.5" />
<circle cx="1100" cy="-480" r="20" fill="#37102a" fill-opacity="0.5" stroke-width="0" />
<text x="1150" y="-470" font-size="30">11: 35.5%</text>
<path d="M 1050.0 -549.9999999999999A 500.0 500.0 0 0 0 1050.0 -549.9999999999999L 550.0 -550.0 Z" stroke-width="10" stroke="white" fill="#ff09eb" fill-opacity="0.5" />
<circle cx="1100" cy="-560" r="20" fill="#ff09eb" fill-opacity="0.5" stroke-width="0" />
<text x="1150" y="-550" font-size="30">22: 0.0%</text>
</svg>