<?xml version="1.0" encoding="utf-8"?>
<!-- Generator: Adobe Illustrator 23.0.1, SVG Export Plug-In . SVG Version: 6.00 Build 0)  -->
<svg version="1.1" id="Layer_1" xmlns="http://www.w3.org/2000/svg" xmlns:xlink="http://www.w3.org/1999/xlink" x="0px" y="0px"
	 viewBox="0 0 1300 1100" style="enable-background:new 0 0 1300 1100;" xml:space="preserve">
<style type="text/css">
	.st0{stroke:#FFFFFF;stroke-miterlimit:10;}
	.st1{fill:#FFFFFF;}
</style>
<rect class="st0" width="1028.9" height="1100"/>
<path id="0" class="st1" d="M812.9,995.9c0,0,148.4-22.9,107.7-170.2L655.9,404.4v-123c0,0,77.3-1.5,76.1-80.4c0,0-0.7-56.4-66.8-71.4
	H392.7c0,0-70.1,12.2-66.9,79.1c0,0,1.1,64.6,76.1,72.7v123L143.2,812.2c0,0-27.1,51.1-3.3,106.5c0,0,28.2,70.8,105.9,77.2H812.9
	l-0.1,104.1H0V0h1300v1100H812.8L812.9,995.9L812.9,995.9z"/>
</svg>
