<?xml version="1.0" encoding="utf-8"?>
<!-- Generator: Adobe Illustrator 23.0.1, SVG Export Plug-In . SVG Version: 6.00 Build 0)  -->
<svg version="1.1" id="Layer_1" xmlns="http://www.w3.org/2000/svg" xmlns:xlink="http://www.w3.org/1999/xlink" x="0px" y="0px"
	 viewBox="0 0 1300 1100" style="enable-background:new 0 0 1300 1100;" xml:space="preserve">
<style type="text/css">
	.st0{stroke:#FFFFFF;stroke-miterlimit:10;}
	.st1{fill:#FFFFFF;}
</style>
<rect class="st0" width="1028.9" height="1100"/>
<path id="0" class="st1" d="M549.8,970.7L858.3,681c0,0,114.6-114.1,114-261.4c0,0,6.6-118.5-72.6-204.7s-145.1-81.7-199.1-83.5
	S558.4,177.5,514.4,247c0,0-64.3-96.9-161-112S191,153.6,138.5,204.8S53.3,332.9,56.7,428.9c3.4,96,55.1,174.6,61.8,184.5
	s71.6,91.3,104.5,123.3s226.1,206.8,232.4,212.5c6.3,5.7,16.1,14.7,16.1,14.7s14,17.8,38.5,20.7c0,0,21.1,2.9,38.2-12.6L549.8,970.7
	l-0.1,129.3H0V0h1300v1100H549.8L549.8,970.7L549.8,970.7z"/>
</svg>
