<?xml version="1.0" encoding="utf-8"?>
<!-- Generator: Adobe Illustrator 23.0.1, SVG Export Plug-In . SVG Version: 6.00 Build 0)  -->
<svg version="1.1" id="Layer_1" xmlns="http://www.w3.org/2000/svg" xmlns:xlink="http://www.w3.org/1999/xlink" x="0px" y="0px"
	 viewBox="0 0 1300 1100" style="enable-background:new 0 0 1300 1100;" xml:space="preserve">
<style type="text/css">
	.st0{fill:#FFFFFF;}
</style>
<rect width="1075" height="1093"/>
<path class="st0" d="M906.1,978.6H673.2c0,0-10.4,1.6-9.9-9.9c0.5-11.5,0-270.9,0-270.9H491V963c0,0,1.9,10.8-8.5,8.5H266.4V556
	h-97.6l409.7-409.7c0,0,11.8-16.8,28.6,0l119.4,119.5V201h168.1v245.9l127.8,127.7H916.1h-8.8v404h-0.7c0,0-0.3-0.4-0.2,0
	c0.1,0.3,0,121.5,0,121.5h392.8V0H0v1100h888.5h13h4.9V978.5C906.3,978.5,906.2,978.5,906.1,978.6L906.1,978.6z"/>
</svg>
